<?xml version="1.0" encoding="utf-8"?>
<!-- Generator: Adobe Illustrator 27.5.0, SVG Export Plug-In . SVG Version: 6.00 Build 0)  -->
<svg version="1.1" xmlns="http://www.w3.org/2000/svg" xmlns:xlink="http://www.w3.org/1999/xlink" x="0px" y="0px"
	 viewBox="0 0 500 500" style="enable-background:new 0 0 500 500;" xml:space="preserve">
<g id="BACKGROUND">
	<rect style="fill:#FFFFFF;" width="500" height="500"/>
</g>
<g id="OBJECTS">
	<g>
		<defs>
			<rect id="SVGID_1_" width="500" height="500"/>
		</defs>
		<clipPath id="SVGID_00000090259354764056689750000012508724558008433325_">
			<use xlink:href="#SVGID_1_"  style="overflow:visible;"/>
		</clipPath>
		<path style="clip-path:url(#SVGID_00000090259354764056689750000012508724558008433325_);fill:#86C9EA;" d="M600.13,278.35
			c0-2.727,0.631-2.578-1.378-3c-2.017-0.423-4.613,0-6.666,0c-7.963,0-15.925,0-23.888,0c-16.435,0-32.87,0-49.306,0
			c-15.031,0-30.063,0-45.094,0c-19.506,0-39.012,0-58.518,0c-33.408,0-66.815,0-100.223,0c-38.383,0-76.765,0-115.148,0
			c-34.36,0-68.72,0-103.08,0c-21.721,0-43.443,0-65.164,0c-15.009,0-30.017,0-45.026,0c-13.533,0-27.066,0-40.6,0
			c-8.918,0-17.837,0-26.755,0c-3.149,0-6.299,0-9.448,0c-0.733,0-3.821-0.488-4.396,0c-0.764,0.648-0.324,2.606,0.364,3
			c1.088,0.624,4.347,0,5.578,0c7.692,0,15.384,0,23.077,0c16.322,0,32.643,0,48.965,0c0.64,0,2.849-0.38,3.403,0
			c0.875,0.6,0.252,10.098,0.322,11.545c0.239,4.912,0.61,9.818,1.118,14.71c-25.747,0-51.493,0-77.24,0
			c-1.144,0-4.054-0.555-5.075,0c-0.669,0.364-1.716,2.044-0.664,3c0.356,0.324,2.53,0,2.979,0c2.482,0,4.964,0,7.446,0
			c16.122,0,32.245,0,48.367,0c6.994,0,13.987,0,20.981,0c0.605,0,3.029-0.397,3.526,0c0.503,0.402,0.612,4.823,0.699,5.459
			c0.318,2.331,0.665,4.659,1.044,6.981c0.756,4.628,1.636,9.237,2.64,13.818c-27.249,0-54.497,0-81.746,0
			c-1.262,0-4.059-0.549-5.218,0c-0.754,0.357-1.816,2.001-0.704,3c0.401,0.36,2.804,0,3.312,0c2.579,0,5.158,0,7.737,0
			c17.029,0,34.059,0,51.088,0c7.377,0,14.754,0,22.131,0c0.769,0,3.373-0.457,4.038,0c0.429,0.295,0.807,3.21,0.982,3.917
			c0.58,2.343,1.192,4.678,1.838,7.004c1.433,5.159,3.021,10.274,4.766,15.336c-29.786,0-59.572,0-89.358,0
			c-1.468,0-4.349-0.573-5.727,0c-0.871,0.362-2.013,1.902-0.786,3c0.448,0.401,3.099,0,3.661,0c2.807,0,5.613,0,8.42,0
			c18.632,0,37.264,0,55.896,0c8.099,0,16.197,0,24.296,0c0.93,0,3.731-0.513,4.55,0c0.448,0.281,0.921,2.3,1.173,2.976
			c1.014,2.721,2.076,5.425,3.182,8.11c2.112,5.127,4.387,10.187,6.817,15.171c-33.529,0-67.059,0-100.588,0
			c-1.732,0-4.818-0.614-6.455,0c-0.213,0.08-0.829-0.151-0.991,0c-0.164,0.152-0.132,2.827,0.055,3c0.47,0.433,3.511,0,4.094,0
			c3.207,0,6.413,0,9.62,0c20.75,0,41.501,0,62.251,0c9.272,0,18.545,0,27.817,0c1.27,0,4.372-0.607,5.527,0
			c0.581,0.305,0.881,1.469,1.222,2.13c1.34,2.6,2.724,5.177,4.151,7.73c3.122,5.585,6.454,11.053,9.973,16.397
			c-38.523,0-77.046,0-115.57,0c-2.271,0-5.735-0.649-7.94,0c-0.262,0.077-0.999-0.176-1.192,0c-0.305,0.276-0.095,2.846,0.087,3
			c0.641,0.545,4.001,0,4.836,0c3.595,0,7.19,0,10.785,0c23.927,0,47.853,0,71.78,0c10.791,0,21.583,0,32.374,0
			c1.777,0,4.91-0.612,6.624,0c1.046,0.373-2.679-2.726,1.109,1.3c2.263,2.405,3.986,5.672,5.97,8.33
			c4.269,5.721,8.769,11.268,13.484,16.628c-18.419,0-36.838,0-55.257,0c-27.027,0-54.053,0-81.08,0c-2.961,0-6.235-0.395-9.174,0
			c-0.286,0.038-1.311-0.192-1.526,0c-0.298,0.267-0.132,2.803,0.113,3c0.821,0.658,4.917,0,5.919,0c4.36,0,8.721,0,13.081,0
			c28.255,0,56.511,0,84.766,0c11.752,0,23.505,0,35.257,0c2.931,0,6.103-0.343,9.018,0c0.418,0.049,1.105-0.164,1.497,0
			c1.363,0.572,2.987,3.205,4.033,4.309c2.58,2.725,5.217,5.396,7.909,8.01c4.99,4.845,10.171,9.492,15.52,13.938
			c-27.989,0-55.979,0-83.968,0c-19.936,0-39.873,0-59.809,0c-7.182,0-14.363,0-21.545,0c-2.36,0-4.72,0-7.08,0
			c-0.961,0-3.132-0.423-4.009,0c-0.773,0.374-1.85,1.906-0.737,3c0.222,0.219,1.694-0.015,1.989,0c4.526,0.226,9.123,0,13.654,0
			c17.572,0,35.144,0,52.716,0c35.412,0,70.824,0,106.236,0c3.676,0,5.54-0.529,8.431,1.738
			c13.827,10.843,28.734,20.308,44.445,28.179c31.648,15.856,66.448,25.101,101.773,27.233c35.58,2.148,71.539-2.802,105.122-14.786
			c16.465-5.875,32.332-13.414,47.292-22.458c7.53-4.553,14.831-9.485,21.868-14.768c2.32-1.742,4.656-4.584,7.462-5.139
			c3.386-0.669,7.598,0,11.034,0c7.063,0,14.125,0,21.188,0c19.906,0,39.811,0,59.717,0c19.845,0,39.691,0,59.537,0
			c6.988,0,13.976,0,20.964,0c2.284,0,4.568,0,6.852,0c0.933,0,3.02,0.408,3.869,0c0.745-0.359,1.826-1.907,0.71-3
			c-0.22-0.215-1.686,0.008-1.979,0c-4.44-0.122-8.901,0-13.342,0c-17.454,0-34.908,0-52.361,0c-35.599,0-71.198,0-106.796,0
			c-2.181,0-4.362,0-6.543,0c5.548-4.611,10.915-9.44,16.078-14.479c2.5-2.44,4.951-4.931,7.352-7.469
			c1.023-1.081,2.74-3.775,4.047-4.309c1.313-0.537,3.976,0,5.361,0c10.447,0,20.894,0,31.342,0c29.601,0,59.203,0,88.804,0
			c8.648,0,17.297,0,25.945,0c0.33,0,1.677,0.213,1.948,0c0.23-0.182,0.4-2.728,0.095-3c-0.669-0.596-4.613,0-5.457,0
			c-25.694,0-51.387,0-77.081,0c-14.393,0-28.786,0-43.179,0c-5.119,0-10.237,0-15.356,0c-2.557,0-6.162,0.666-8.646,0
			c-0.339-0.091-0.816,0-1.175,0c4.193-4.766,8.217-9.681,12.059-14.734c1.91-2.513,3.776-5.059,5.595-7.639
			c0.563-0.798,1.897-3.534,2.751-3.885c1.172-0.48,3.493,0,4.751,0c8.945,0,17.89,0,26.836,0c25.218,0,50.436,0,75.654,0
			c4.543,0,9.086,0,13.629,0c2.535,0,5.646,0.496,8.133,0c0.263-0.053,1.211,0.181,1.428,0c0.244-0.203,0.312-2.76,0.048-3
			c-0.579-0.527-4.098,0-4.836,0c-21.755,0-43.51,0-65.265,0c-19.479,0-38.959,0-58.438,0c2.934-4.454,5.737-8.996,8.397-13.619
			c1.327-2.306,2.619-4.632,3.875-6.978c0.58-1.084,1.947-5.159,2.972-5.66c0.885-0.432,3.046,0,4.004,0c7.798,0,15.597,0,23.395,0
			c21.833,0,43.666,0,65.499,0c3.995,0,7.989,0,11.984,0c2.197,0,4.988,0.47,7.142,0c0.277-0.06,1.054,0.179,1.262,0
			c0.17-0.146,0.307-2.741,0.04-3c-0.443-0.43-3.49,0-4.067,0c-18.965,0-37.929,0-56.894,0c-16.978,0-33.955,0-50.933,0
			c2.083-4.272,4.053-8.6,5.904-12.978c1.028-2.432,2.018-4.879,2.971-7.341c0.477-1.234,1.182-5.35,2.222-5.938
			c0.673-0.381,2.668,0,3.412,0c6.76,0,13.521,0,20.281,0c19.656,0,39.311,0,58.967,0c3.592,0,7.185,0,10.777,0
			c1.76,0,4.532,0.537,6.221,0c0.207-0.066,0.921,0.148,1.089,0c0.181-0.159,0.249-2.825,0.073-3c-0.367-0.365-2.963,0-3.45,0
			c-17.012,0-34.024,0-51.036,0c-15.103,0-30.205,0-45.308,0c1.483-4.302,2.853-8.642,4.11-13.015
			c0.592-2.061,1.159-4.129,1.701-6.204c0.271-1.038,0.927-6.542,1.733-7.037c0.54-0.332,2.288,0,2.895,0c6.273,0,12.546,0,18.819,0
			c18.011,0,36.021,0,54.032,0c3.226,0,6.452,0,9.678,0c1.577,0,4.356,0.542,5.86,0c0.19-0.068,0.787,0.136,0.935,0
			c0.152-0.139,0.215-2.822,0.03-3c-0.329-0.317-2.649,0-3.057,0c-15.496,0-30.992,0-46.488,0c-14.008,0-28.016,0-42.024,0
			c0.892-4.071,1.686-8.164,2.383-12.273c0.349-2.061,0.674-4.125,0.975-6.194c0.241-1.658,0.028-5.65,0.922-7.01
			c0.707-1.076,0.933-0.781,2.656-0.781c5.828,0,11.656,0,17.484,0c17.2,0,34.4,0,51.6,0c3.033,0,6.067,0,9.1,0
			c1.479,0,4.141,0.533,5.527,0c0.172-0.066,0.755,0.129,0.891,0c0.154-0.146,0.221-2.821,0.032-3c-0.324-0.307-2.444,0-2.86,0
			c-14.774,0-29.549,0-44.323,0c-13.228,0-26.456,0-39.684,0c0.451-4.347,0.797-8.705,1.034-13.068
			c0.119-2.192,0.212-4.386,0.278-6.58c0.028-0.922-0.502-6.055,0.123-6.608c0.361-0.32,2.474,0,2.925,0c6.161,0,12.321,0,18.482,0
			c17.154,0,34.307,0,51.461,0C591.747,278.35,595.938,278.35,600.13,278.35z M476.726,278.35
			c-0.036,5.508-0.279,11.014-0.717,16.505c-0.109,1.369-0.101,9.182-1.043,9.751c-0.28,0.169-0.914-0.081-1.231,0
			c-2.1,0.538-5.068,0-7.224,0c-10.422,0-20.844,0-31.266,0c-36.324,0-72.647,0-108.971,0c-44.978,0-89.956,0-134.934,0
			c-38.254,0-76.508,0-114.762,0c-12.001,0-24.002,0-36.002,0c-3.331,0-6.662,0-9.993,0c-0.832,0-3.315,0.458-4.054,0
			c-0.932-0.577-0.938-8.675-1.025-9.751c-0.44-5.49-0.681-10.997-0.717-16.505c15.028,0,30.057,0,45.085,0
			c35.941,0,71.881,0,107.822,0c43.464,0,86.928,0,130.392,0c37.694,0,75.388,0,113.082,0c18.261,0,36.522,0,54.783,0
			C476.207,278.35,476.466,278.35,476.726,278.35z M152.173,480.149c-14.791-7.201-28.785-16.029-41.669-26.257
			c31.735,0,63.469,0,95.204,0c50.224,0,100.449,0,150.673,0c11.543,0,23.086,0,34.629,0c-7.403,5.877-15.171,11.293-23.248,16.202
			c-3.84,2.334-7.75,4.554-11.723,6.655c-2.052,1.085-4.559,2.98-6.814,3.4c-2.408,0.449-5.333,0-7.769,0
			c-14.493,0-28.986,0-43.48,0c-39.004,0-78.008,0-117.012,0C171.367,480.149,161.77,480.149,152.173,480.149z M342.942,483.149
			c-58.125,26.076-126.243,26.075-184.369,0c20.831,0,41.662,0,62.494,0c33.029,0,66.059,0,99.088,0
			C327.751,483.149,335.347,483.149,342.942,483.149z M106.799,450.893c-9.65-7.995-18.64-16.787-26.846-26.258
			c11.363,0,22.727,0,34.09,0c27.142,0,54.283,0,81.425,0c32.961,0,65.922,0,98.883,0c28.374,0,56.749,0,85.123,0
			c9.362,0,18.724,0,28.087,0c2.942,0,5.884,0,8.826,0c0.938,0,3.746-0.506,4.565,0c0.112,0.069,0.462,0,0.608,0
			c-4.267,4.924-8.746,9.664-13.418,14.206c-2.336,2.271-4.723,4.49-7.154,6.658c-1.649,1.47-4.217,4.679-6.281,5.394
			c-0.63,0.218-1.712,0-2.368,0c-5.51,0-11.02,0-16.529,0c-22.212,0-44.423,0-66.634,0c-28.784,0-57.568,0-86.353,0
			c-25.769,0-51.538,0-77.308,0c-12.725,0-25.45,0-38.175,0C107.159,450.893,106.979,450.893,106.799,450.893z M77.398,421.635
			c-6.933-8.287-13.275-17.068-18.959-26.257c12.731,0,25.461,0,38.192,0c30.58,0,61.16,0,91.741,0c37.013,0,74.026,0,111.039,0
			c32.124,0,64.249,0,96.373,0c10.541,0,21.083,0,31.624,0c3.283,0,6.567,0,9.85,0c1.098,0,4.2-0.575,5.16,0
			c0.123,0.074,0.497,0,0.656,0c-4.332,7.004-9.047,13.772-14.115,20.264c-1.314,1.684-3.197,5.303-5.139,5.993
			c-1.083,0.385-3.025,0-4.157,0c-7.18,0-14.361,0-21.541,0c-26.988,0-53.977,0-80.965,0c-34.49,0-68.98,0-103.471,0
			c-30.314,0-60.627,0-90.941,0c-14.902,0-29.804,0-44.706,0C77.824,421.635,77.611,421.635,77.398,421.635z M56.625,392.378
			c-5.047-8.448-9.553-17.222-13.453-26.258c13.789,0,27.578,0,41.367,0c33.105,0,66.21,0,99.315,0c39.892,0,79.784,0,119.677,0
			c34.502,0,69.005,0,103.507,0c11.487,0,22.974,0,34.46,0c3.522,0,7.044,0,10.566,0c1.239,0,4.448-0.611,5.556,0
			c0.146,0.081,0.539,0,0.721,0c-3.594,8.325-7.702,16.426-12.273,24.257c-0.986,1.688-0.704,1.613-1.79,2.001
			c-1.394,0.498-3.911,0-5.372,0c-8.276,0-16.552,0-24.828,0c-30.483,0-60.966,0-91.449,0c-38.258,0-76.515,0-114.773,0
			c-33.732,0-67.464,0-101.196,0c-16.449,0-32.898,0-49.347,0C57.083,392.378,56.854,392.378,56.625,392.378z M41.915,363.12
			c-3.547-8.554-6.564-17.329-9.026-26.257c14.432,0,28.863,0,43.295,0c34.663,0,69.325,0,103.988,0c41.946,0,83.892,0,125.838,0
			c36.281,0,72.562,0,108.844,0c11.97,0,23.94,0,35.91,0c3.734,0,7.469,0,11.203,0c1.375,0,4.638-0.63,5.892,0
			c0.166,0.083,0.566,0,0.765,0c-1.235,4.478-2.609,8.917-4.12,13.31c-0.835,2.428-1.712,4.842-2.63,7.239
			c-0.461,1.204-1.219,5.138-2.278,5.708c-0.213,0.115-0.611-0.078-0.84,0c-1.61,0.551-4.418,0-6.101,0c-9.058,0-18.116,0-27.173,0
			c-32.877,0-65.755,0-98.632,0c-41.06,0-82.121,0-123.181,0c-36.012,0-72.025,0-108.037,0c-17.652,0-35.305,0-52.957,0
			C42.42,363.12,42.167,363.12,41.915,363.12z M32.072,333.863c-2.254-8.638-3.989-17.413-5.199-26.258c14.813,0,29.626,0,44.438,0
			c35.718,0,71.436,0,107.154,0c43.079,0,86.158,0,129.237,0c37.343,0,74.687,0,112.03,0c12.251,0,24.502,0,36.752,0
			c3.811,0,7.622,0,11.433,0c1.434,0,4.657-0.631,5.974,0c0.164,0.079,0.55,0,0.746,0c-0.714,5.222-1.611,10.419-2.69,15.578
			c-0.336,1.607-1.23,9.927-2.528,10.68c-0.239,0.139-0.737-0.083-1,0c-1.785,0.564-4.694,0-6.55,0c-9.658,0-19.316,0-28.974,0
			c-34.407,0-68.814,0-103.22,0c-42.954,0-85.907,0-128.861,0c-37.612,0-75.224,0-112.836,0c-18.381,0-36.763,0-55.144,0
			C32.58,333.863,32.326,333.863,32.072,333.863z M-10.176,278.35c7.478,0,14.956,0,22.435,0c1.977,0,7.555-1.041,9.292,0
			c0.978,0.587,0.478,9.134,0.561,10.734c0.269,5.187,0.71,10.365,1.329,15.522c-7.52,0-15.04,0-22.56,0
			c-2.042,0-7.532,1.041-9.344,0c-1.224-0.703-1.045-8.891-1.156-10.584C-9.959,288.805-10.146,283.578-10.176,278.35z
			 M-8.358,307.605c7.655,0,15.311,0,22.966,0c1.683,0,7.72-1.028,9.111,0c0.458,0.339,0.55,3.118,0.669,3.912
			c0.353,2.339,0.74,4.673,1.165,7c0.94,5.152,2.057,10.272,3.352,15.346c-7.762,0-15.524,0-23.286,0c-2.116,0-7.433,1.029-9.327,0
			c-1.428-0.775-2.011-8.895-2.337-10.705C-6.974,318-7.744,312.811-8.358,307.605z M-3.215,336.863c7.917,0,15.833,0,23.75,0
			c1.75,0,7.611-1.031,9.091,0c0.597,0.416,1.066,3.584,1.32,4.455c0.719,2.465,1.481,4.919,2.284,7.358
			c1.604,4.873,3.374,9.691,5.305,14.444c-7.985,0-15.969,0-23.954,0c-2.128,0-4.256,0-6.384,0c-0.768,0-2.77,0.384-3.468,0
			c-1.848-1.019-3.067-8.471-3.736-10.674C-0.572,347.298-1.978,342.1-3.215,336.863z M5.564,366.12c8.242,0,16.483,0,24.725,0
			c1.936,0,7.728-1.059,9.427,0c0.798,0.498,1.84,4.081,2.235,4.956c1.061,2.349,2.163,4.679,3.304,6.99
			c2.4,4.861,4.974,9.635,7.716,14.312c-8.461,0-16.922,0-25.382,0c-2.242,0-4.483,0-6.725,0c-0.912,0-2.966,0.406-3.809,0
			c-1.942-0.936-4.002-7.928-4.937-10.036C9.753,377.01,7.565,371.599,5.564,366.12z M18.339,395.378c8.868,0,17.736,0,26.604,0
			c2.21,0,7.793-1.081,9.789,0c1.172,0.635,2.523,4.027,3.263,5.175c1.657,2.572,3.366,5.11,5.124,7.614
			c3.239,4.614,6.652,9.106,10.225,13.467c-9.304,0-18.608,0-27.912,0c-2.455,0-4.91,0-7.365,0c-1.028,0-3.101,0.402-4.073,0
			c-0.94-0.389-1.734-2.307-2.297-3.175c-1.519-2.341-3.002-4.705-4.445-7.093C24.096,406.143,21.12,400.81,18.339,395.378z
			 M35.823,424.635c9.886,0,19.771,0,29.657,0c2.772,0,7.744-1.001,10.38,0c1.947,0.739,4.845,5.558,6.331,7.175
			c1.989,2.165,4.02,4.291,6.091,6.377c4.386,4.417,8.952,8.654,13.677,12.706c-10.547,0-21.094,0-31.641,0c-2.915,0-5.83,0-8.746,0
			c-1.359,0-3.425,0.404-4.735,0c-0.925-0.285-1.686-1.54-2.33-2.274c-2.338-2.666-4.621-5.381-6.849-8.14
			C43.516,435.349,39.567,430.063,35.823,424.635z M59.252,453.893c11.831,0,23.662,0,35.493,0c2.718,0,5.436,0,8.155,0
			c2.623,0,2.757,0.134,5.029,1.955c11.593,9.291,24.101,17.441,37.279,24.302c-9.082,0-18.164,0-27.246,0
			c-6.644,0-13.288,0-19.931,0c-3.013,0-7.535,0.871-10.454,0c-1.493-0.445-3.146-2.406-4.362-3.427
			c-2.753-2.312-5.459-4.679-8.116-7.101C69.596,464.605,64.307,459.357,59.252,453.893z M250.76,537.79
			c-57.536,0-114.128-19.387-159.594-54.641c14.063,0,28.126,0,42.189,0c5.588,0,11.911-0.834,17.452,0
			c1.763,0.265,3.508,1.492,5.134,2.233c3.872,1.763,7.794,3.419,11.76,4.96c8.177,3.177,16.537,5.88,25.026,8.09
			c33.7,8.773,69.426,9.75,103.564,2.882c16.721-3.364,33.057-8.605,48.604-15.621c3.126-1.411,4.822-2.544,8.025-2.544
			c3.025,0,6.051,0,9.076,0c16.12,0,32.239,0,48.359,0C364.888,518.403,308.296,537.79,250.76,537.79z M414.141,480.149
			c-19.277,0-38.553,0-57.83,0c13.178-6.861,25.681-15.014,37.277-24.302c2.251-1.803,2.435-1.955,5.029-1.955
			c2.718,0,5.437,0,8.155,0c11.832,0,23.664,0,35.496,0C433.551,463.316,424.139,472.098,414.141,480.149z M444.996,450.893
			c-15.146,0-30.293,0-45.439,0c4.521-3.878,8.899-7.924,13.11-12.136c2.268-2.268,4.487-4.585,6.657-6.947
			c1.08-1.176,2.149-2.363,3.205-3.56c0.595-0.675,2.317-3.263,3.126-3.614c2.461-1.069,7.751,0,10.381,0c9.887,0,19.774,0,29.661,0
			C459.365,433.816,452.443,442.59,444.996,450.893z M467.733,421.635c-13.187,0-26.375,0-39.562,0
			c3.572-4.361,6.982-8.855,10.224-13.467c1.613-2.295,3.181-4.621,4.708-6.973c0.747-1.151,2.497-5.288,3.678-5.816
			c2.267-1.014,7.368,0,9.791,0c8.87,0,17.74,0,26.609,0C478.551,404.422,473.385,413.192,467.733,421.635z M484.689,392.378
			c-12.049,0-24.099,0-36.148,0c2.611-4.454,5.073-8.996,7.373-13.618c1.148-2.307,2.259-4.634,3.328-6.979
			c0.497-1.089,1.572-5.163,2.514-5.661c1.957-1.034,7.324,0,9.468,0c8.244,0,16.487,0,24.731,0
			C492.688,375.071,488.922,383.841,484.689,392.378z M497.03,363.12c-11.351,0-22.702,0-34.054,0
			c1.835-4.515,3.522-9.089,5.062-13.713c0.811-2.437,1.581-4.886,2.308-7.349c0.309-1.046,0.718-4.743,1.497-5.195
			c1.764-1.023,7.152,0,9.135,0c7.919,0,15.838,0,23.757,0C502.638,345.744,500.055,354.511,497.03,363.12z M505.406,333.863
			c-10.934,0-21.867,0-32.801,0c1.23-4.82,2.298-9.681,3.208-14.572c0.319-1.713,0.729-10.842,1.936-11.686
			c1.477-1.032,7.412,0,9.156,0c7.658,0,15.315,0,22.973,0C508.838,316.427,507.345,325.195,505.406,333.863z M510.232,304.605
			c-10.721,0-21.441,0-32.162,0c0.586-4.884,1.014-9.788,1.287-14.7c0.108-1.939-0.617-10.72,0.536-11.556
			c1.463-1.06,7.598,0,9.363,0c7.48,0,14.961,0,22.442,0C511.647,287.119,511.158,295.885,510.232,304.605z"/>
	</g>
	<g>
		<g>
			<g>
				<path style="fill:#9FDAFE;" d="M442.89,277.31c0,8.2-0.51,16.29-1.51,24.22c-11.91,94.89-92.87,168.29-190.99,168.29
					c-103.73,0-188.32-82.07-192.35-184.84c-0.1-2.54-0.15-5.1-0.15-7.67c0-22.45,3.84-44.03,10.92-64.08h363.16
					C439.05,233.28,442.89,254.86,442.89,277.31z"/>
				<path style="fill:#86C9EA;" d="M442.89,277.31c0,8.2-0.51,16.29-1.51,24.22c-11.91,94.89-92.87,168.29-190.99,168.29
					c-103.73,0-188.32-82.07-192.35-184.84c-0.1-2.54-0.15-5.1-0.15-7.67c0-2.51,0.05-5,0.15-7.48v0.15
					c4.03,102.77,88.62,184.84,192.35,184.84c98.12,0,179.08-73.4,190.99-168.29c0.7-5.52,1.15-11.11,1.36-16.76
					C442.84,272.27,442.89,274.78,442.89,277.31z"/>
				<g>
					<g>
						<path style="fill:#B3D887;" d="M442.89,277.31c0,5.78-0.25,11.5-0.76,17.15c-0.2,2.37-0.45,4.73-0.75,7.07
							c-12.51-1.09-29.1-3.98-35.63,1.03c-1.25,0.97-2.32,2.24-2.59,3.73c-0.91,4.85,6.14,7.3,11.46,7.7
							c5.35,0.4,12.4,2.37,12.04,7.29c-0.16,1.94-1.58,3.57-3.05,4.96c-6.46,5.96-15.32,9.54-21.03,16.13
							c-3.77,4.38-5.86,9.73-8.21,14.87c-7.48,16.32-18.35,31.32-31.81,43.99c-2.23,2.09-5.21,4.28-8.24,3.41
							c-2.4-0.68-3.71-3.02-4.59-5.2c-1.47-3.65-2.44-7.42-3.19-11.25c-1.44-7.29-2.08-14.77-3.83-22.01
							c-4.5-18.51-16.6-35.35-33.35-46.38c-5.96-3.92-12.58-7.24-17.17-12.5c-9.24-10.63-6.58-28.23,5.47-36.13
							c6.11-3.99,14.64-6.37,16.78-13.01c1.15-3.51,0.02-7.31,0.63-10.95c2.2-13.19,23.96-16.23,28.3-28.94
							c0.56-1.65,0.78-3.34,0.77-5.04h87.83C439.05,233.28,442.89,254.86,442.89,277.31z"/>
						<path style="fill:#A1C174;" d="M403.16,306.29c-0.91,4.85,6.14,7.3,11.46,7.7c5.35,0.4,12.4,2.37,12.04,7.29
							c-0.16,1.94-1.58,3.57-3.05,4.96c-6.46,5.96-15.32,9.54-21.03,16.13c-3.77,4.38-5.86,9.73-8.21,14.87
							c-7.48,16.32-18.35,31.32-31.81,43.99c-2.23,2.09-5.21,4.28-8.24,3.41c-2.4-0.68-3.71-3.02-4.59-5.2
							c-1.47-3.65-2.44-7.42-3.19-11.25c2.36,0.99,4.77,2.9,6.44,3.61c2.61,1.12,5.32,1.32,8,0.16c4.37-1.89,9.08-7.35,11.27-11.6
							c2.75-5.33,3.61-11.59,6.11-17.05c2.49-5.41,4.79-11.88,8.25-16.7c3.22-4.48,7.46-7.94,12.34-10.47
							c3.22-1.68,6.29-2.66,7.91-6c3.15-6.54-1.88-7.63-6.83-9.94c-5.51-2.57-8.42-9.09-6.55-14.69
							c3.82-11.45,18.3-13.79,28.86-13.8c4.58,0,9.03,0.27,13.42,1.38c1.69,0.43,4.12,0.79,6.37,1.37c-0.2,2.37-0.45,4.73-0.75,7.07
							c-12.51-1.09-29.1-3.98-35.63,1.03C404.5,303.53,403.43,304.8,403.16,306.29z"/>
						<path style="opacity:0.2;fill:#FFFFFF;" d="M356.744,217.851c-2.051,0.496-3.087,3.549-4.263,5.187
							c-1.537,2.141-3.327,3.942-5.502,5.417c-5.053,3.428-12.34,4.922-16.505,9.396c-5.89,6.327-0.338,15.64-4.847,22.329
							c-3.086,4.578-8.857,6.621-12.533,10.747c-3.693,4.146-9.146,10.181-9.458,16.037c-0.718,13.48,14.722,21.027,21.662,30.259
							c3.635,4.835,11.626,33.019,21.698,24.887c4.91-3.965,4.596-13.051,2.402-18.333c-2.177-5.242-12.861-15.084-8.48-21.093
							c1.716-2.354,5.692-2.953,8.191-3.96c3.788-1.526,6.872-3.486,9.01-7.044c5.016-8.35,2.29-20.626-2.663-28.356
							c-4.414-6.889-9.441-16.273-0.38-21.307c6.495-3.608,11.631-5.685,14.475-13.183
							C373.264,219.05,366.679,213.433,356.744,217.851z"/>
						<path style="fill:#B3D887;" d="M242.48,341.2c-0.13,15.83-4.64,31.6-13.01,45.43c-5.63,9.31-13,17.83-16.73,27.9
							c-2.79,7.55-3.4,15.67-2.48,23.6c0.19,1.55,0.37,3.28-0.63,4.52c-1.05,1.26-2.98,1.56-4.7,1.45
							c-8.85-0.53-14.89-8.86-16.54-16.89c-2.85-13.82,3.71-35.87-14.4-42.79c-3.84-1.47-8.22-1.89-11.67-4.03
							c-3.31-2.08-5.41-5.7-5.41-9.4c0-2.35,0.79-4.75,0.13-7.02c-0.59-1.99-2.2-3.57-3.54-5.23c-5.89-7.22-6.96-17.52-2.69-25.64
							c0.98-1.82,2.21-3.78,1.64-5.73c-0.9-3.12-5.44-3.69-8.92-3.29c-9.96,1.12-20.97,4.59-29.32-0.52
							c-8.23-5.04-9.15-15.62-13.52-23.78c-5.79-10.75-19.05-17.68-32.03-16.73c-3.56,0.25-7.1,1.04-10.62,1.93
							c-0.1-2.54-0.15-5.1-0.15-7.67c0-22.45,3.84-44.03,10.92-64.08h138.82c0.13,1.54,0.08,3.08-0.16,4.59
							c-1.48,8.87-8.52,16.31-16.97,20.73c-7.65,4.01-16.85,6.15-22.51,12.36c-9.01,9.87-6.52,27.24-18.58,33.73
							c-2.94,1.6-6.46,2.3-8.98,4.4c-5.11,4.27-3.33,12.81,2.32,16.42c5.68,3.58,13.51,2.97,19.7,0.17
							c6.43-2.92,13.53-8.06,19.83-4.91c3.37,1.68,5.23,5.4,8.79,6.67c2.67,0.96,5.65,0.35,8.47,0.59
							c11.08,1.06,15.79,14.53,26.25,18.07c4.32,1.44,9.52,1.16,12.97,3.94C242.05,332.66,242.52,337.18,242.48,341.2z"/>
						<path style="opacity:0.2;fill:#FFFFFF;" d="M78.451,239.403c-5.918,8.53-7.711,24.634,3.005,30.984
							c5.955,3.529,11.52-0.745,15.742-4.808c5.549-5.34,9.288-12.362,16.724-15.465c7.83-3.268,17.845-0.835,24.8-6.147
							c6.115-4.67,5.377-12.943,0.807-18.396c-4.312-5.145-13.428-8.122-20.054-8.295
							C115.821,217.182,94.221,216.675,78.451,239.403z"/>
						
							<ellipse transform="matrix(0.0963 -0.9954 0.9954 0.0963 -154.4448 333.7604)" style="fill:#A1C174;" cx="106.585" cy="251.935" rx="11.661" ry="11.431"/>
						
							<ellipse transform="matrix(0.0963 -0.9954 0.9954 0.0963 -154.4448 333.7604)" style="fill:#FFFFFF;" cx="106.585" cy="251.935" rx="6.369" ry="6.243"/>
						<g>
							<g>
								<path style="fill:#FFFFFF;" d="M364.02,310.035c-1.389,0-10.426-1.831-7.449-3.527c1.022-0.582,4.548,0.805,5.595,1.091
									C362.822,307.779,367.097,310.035,364.02,310.035z M348.922,306.684c-1.475,0-10.98-2.053-7.971-3.643
									c1.111-0.587,4.716,0.84,5.84,1.145C347.329,304.332,352.197,306.684,348.922,306.684z M333.302,303.216
									c-1.475,0-10.98-2.053-7.97-3.642c1.111-0.587,4.715,0.839,5.839,1.145C331.709,300.865,336.577,303.216,333.302,303.216z
									 M317.683,299.748c-1.475,0-10.981-2.053-7.971-3.642c1.111-0.587,4.715,0.839,5.839,1.145
									C316.09,297.397,320.958,299.748,317.683,299.748z M302.063,296.28c-1.475,0-10.981-2.053-7.97-3.643
									c1.111-0.587,4.715,0.84,5.839,1.145C300.47,293.929,305.338,296.28,302.063,296.28z M286.442,292.813
									c-1.475,0-10.981-2.053-7.97-3.643c1.111-0.586,4.715,0.84,5.839,1.145C284.85,290.461,289.718,292.813,286.442,292.813z
									 M270.823,289.346c-1.475,0-10.98-2.053-7.971-3.643c1.111-0.587,4.716,0.84,5.839,1.145
									C269.23,286.994,274.099,289.346,270.823,289.346z M255.203,285.878c-1.475,0-10.98-2.054-7.971-3.644
									c1.11-0.587,4.717,0.841,5.84,1.146C253.61,283.527,258.479,285.878,255.203,285.878z M239.583,282.41
									c-1.475,0-10.98-2.053-7.971-3.643c1.11-0.587,4.717,0.84,5.84,1.145C237.991,280.059,242.858,282.41,239.583,282.41z
									 M223.964,278.942c-1.475,0-10.98-2.052-7.972-3.643c1.11-0.587,4.717,0.84,5.84,1.145
									C222.371,276.591,227.239,278.942,223.964,278.942z M208.344,275.475c-1.475,0-10.981-2.053-7.972-3.643
									c1.11-0.587,4.717,0.84,5.84,1.146C206.751,273.123,211.619,275.475,208.344,275.475z M192.725,272.008
									c-1.475,0-10.98-2.054-7.972-3.644c1.11-0.587,4.717,0.841,5.84,1.146C191.132,269.656,196,272.008,192.725,272.008z
									 M177.104,268.54c-1.475,0-10.98-2.054-7.971-3.644c1.11-0.587,4.717,0.84,5.84,1.146
									C175.512,266.189,180.379,268.54,177.104,268.54z M161.485,265.072c-1.475,0-10.98-2.055-7.971-3.644
									c1.11-0.587,4.717,0.841,5.84,1.146C159.892,262.721,164.76,265.072,161.485,265.072z M145.865,261.604
									c-1.474,0-10.981-2.053-7.971-3.643c1.11-0.587,4.717,0.84,5.84,1.146C144.272,259.253,149.14,261.604,145.865,261.604z
									 M130.246,258.137c-1.475,0-10.981-2.053-7.971-3.643c1.11-0.587,4.717,0.84,5.84,1.145
									C128.653,255.786,133.52,258.137,130.246,258.137z M114.626,254.669c-1.474,0-10.983-2.055-7.971-3.644
									c1.11-0.586,4.718,0.841,5.84,1.146C113.033,252.318,117.901,254.669,114.626,254.669z"/>
							</g>
							<g>
								<path style="fill:#FFFFFF;" d="M170.936,346.503c-3.684,0,2.774-3.164,2.85-3.195c0.883-0.347,4.119-2.269,4.995-1.647
									C181.061,343.28,172.324,346.503,170.936,346.503z M185.828,340.652c-3.684,0,2.773-3.164,2.85-3.195
									c0.883-0.347,4.12-2.269,4.995-1.646C195.951,337.431,187.216,340.652,185.828,340.652z M200.719,334.802
									c-3.684,0,2.774-3.164,2.851-3.195c0.882-0.347,4.12-2.269,4.995-1.648C210.846,331.579,202.107,334.802,200.719,334.802z
									 M215.611,328.95c-3.684,0,2.773-3.164,2.85-3.194c0.882-0.347,4.12-2.268,4.995-1.647
									C225.737,325.729,216.999,328.95,215.611,328.95z M230.503,323.1c-3.684,0,2.774-3.164,2.851-3.194
									c0.882-0.347,4.121-2.268,4.996-1.647C240.628,319.879,231.891,323.1,230.503,323.1z M245.395,317.249
									c-3.684,0,2.774-3.164,2.851-3.194c0.883-0.347,4.119-2.268,4.994-1.647C255.521,314.026,246.784,317.249,245.395,317.249z
									 M260.286,311.398c-3.683,0,2.775-3.164,2.852-3.195c0.884-0.347,4.116-2.267,4.992-1.647
									C270.415,308.172,261.675,311.398,260.286,311.398z M275.179,305.548c-3.683,0,2.773-3.164,2.85-3.195
									c0.883-0.347,4.118-2.268,4.994-1.647C285.306,302.324,276.568,305.548,275.179,305.548z M290.07,299.697
									c-3.683,0,2.775-3.164,2.852-3.195c0.883-0.347,4.116-2.267,4.993-1.647C300.198,296.472,291.459,299.697,290.07,299.697z
									 M304.962,293.846c-3.683,0,2.775-3.164,2.852-3.194c0.883-0.347,4.119-2.268,4.994-1.647
									C315.088,290.623,306.35,293.846,304.962,293.846z M319.854,287.995c-3.683,0,2.774-3.164,2.851-3.194
									c0.883-0.347,4.117-2.267,4.993-1.647C329.981,284.772,321.243,287.995,319.854,287.995z M334.746,282.145
									c-3.683,0,2.775-3.164,2.852-3.195c0.884-0.347,4.115-2.267,4.992-1.648C344.876,278.918,336.135,282.145,334.746,282.145z
									 M349.638,276.294c-3.683,0,2.775-3.164,2.852-3.195c0.883-0.347,4.117-2.267,4.993-1.648
									C359.766,273.068,351.026,276.294,349.638,276.294z M364.53,270.443c-3.683,0,2.773-3.164,2.85-3.195
									c0.883-0.347,4.118-2.268,4.994-1.647C374.657,267.22,365.919,270.443,364.53,270.443z M379.422,264.593
									c-3.683,0,2.773-3.164,2.85-3.195c0.883-0.347,4.118-2.268,4.994-1.647C389.549,261.369,380.811,264.593,379.422,264.593z"
									/>
							</g>
						</g>
						
							<ellipse transform="matrix(0.9706 -0.2406 0.2406 0.9706 -50.4466 102.1057)" style="fill:#A1C174;" cx="392.883" cy="257.624" rx="11.661" ry="12.342"/>
						
							<ellipse transform="matrix(0.9706 -0.2406 0.2406 0.9706 -50.4466 102.1057)" style="fill:#FFFFFF;" cx="392.883" cy="257.624" rx="6.369" ry="6.74"/>
						
							<ellipse transform="matrix(0.0988 -0.9951 0.9951 0.0988 20.9531 641.2029)" style="fill:#A1C174;" cx="364.496" cy="309.033" rx="11.661" ry="11.386"/>
						
							<ellipse transform="matrix(0.0988 -0.9951 0.9951 0.0988 20.3639 640.4123)" style="fill:#FFFFFF;" cx="363.765" cy="308.963" rx="6.369" ry="6.218"/>
						
							<ellipse transform="matrix(0.2544 -0.9671 0.9671 0.2544 -206.398 423.3023)" style="fill:#A1C174;" cx="171.318" cy="345.503" rx="11.661" ry="11.964"/>
						
							<ellipse transform="matrix(0.2544 -0.9671 0.9671 0.2544 -206.4375 423.2088)" style="fill:#FFFFFF;" cx="171.238" cy="345.482" rx="6.369" ry="6.534"/>
					</g>
				</g>
			</g>
			<path d="M443.002,257.884c-1.555-15.325-8.623-44.273-10.093-44.984s-7.824-0.667-9.126-0.667c-7.822,0-15.645,0-23.467,0
				c-26.218,0-52.436,0-78.654,0c-32.82,0-65.64,0-98.46,0c-30.463,0-60.926,0-91.388,0c-18.752,0-37.504,0-56.256,0
				c-1.817,0-3.649-0.068-5.465,0c-0.321,0.012-0.829-0.106-1.135,0c-1.809,0.628-1.974,3.184-2.63,5.192
				c-8.47,25.908-11.499,53.855-8.435,80.97c5.244,46.415,26.995,89.314,61.001,121.173c36.178,33.894,85.952,52.718,135.487,51.538
				c49.674-1.184,97.521-21.562,132.738-56.526c32.539-32.304,52.88-76.352,56.27-122.076
				C444.245,280.967,444.152,269.401,443.002,257.884z M59.937,258.099c1.359-13.901,4.247-27.654,8.605-40.925
				c1.21-3.684,1.341-2.942,4.834-2.942c9.67,0,19.34,0,29.01,0c27.778,0,55.556,0,83.334,0c6.986,0,13.973,0,20.959,0
				c0.325,10.742-8.717,19.19-17.593,23.635c-8.88,4.446-19.2,6.729-24.792,15.72c-5.216,8.385-4.913,20.22-12.224,27.302
				c-3.427,3.32-8.178,3.753-11.903,6.513c-3.86,2.859-5.035,7.793-3.579,12.276c3.37,10.377,16.286,11.255,25.003,7.901
				c4.691-1.805,8.888-4.99,13.858-6.047c6.276-1.336,8.31,3.032,12.808,6.009c4.084,2.703,8.426,1.139,12.876,2.207
				c4.805,1.154,8.325,4.905,11.672,8.296c3.183,3.224,6.417,6.614,10.585,8.563c4.468,2.089,10.729,1.296,14.583,4.583
				c3.582,3.055,3.2,8.62,3.023,12.859c-0.265,6.356-1.232,12.712-2.893,18.854c-2.876,10.632-7.781,20.262-13.919,29.359
				c-5.956,8.826-12.263,17.52-14.537,28.131c-1.071,4.998-1.342,10.149-0.969,15.241c0.365,4.966,0.616,8.196-5.706,6.825
				c-11.305-2.452-13.883-15.361-14.146-25.098c-0.268-9.945,0.58-22.058-7.182-29.65c-3.596-3.517-8.077-4.819-12.766-6.148
				c-4.516-1.28-9.009-3.218-10.367-8.2c-1.373-5.038,1.202-8.705-2.336-13.384c-3.393-4.487-6.162-8.67-6.626-14.48
				c-0.243-3.047,0.142-6.165,1.161-9.05c0.85-2.407,2.812-4.725,3.035-7.301c0.563-6.517-7.318-6.634-11.815-6.084
				c-10.876,1.331-24.48,5.563-32.019-5.239c-3.416-4.893-4.674-10.944-7.15-16.298c-2.401-5.191-6.042-9.55-10.705-12.858
				c-9.845-6.983-21.431-7.815-32.872-4.999C58.951,275.118,59.117,266.622,59.937,258.099z M428.252,347.731
				c-23.413,61.164-80.388,106.569-144.557,117.809c-67.834,11.881-139.751-14.462-182.542-68.669
				c-23.045-29.193-37.982-64.509-41.256-101.699c-0.182-2.064-1.399-6.655-0.634-8.543c0.625-1.543,2.255-1.478,4.184-1.843
				c5.414-1.024,10.874-1.053,16.226,0.381c9.744,2.611,17.682,9.215,21.626,18.512c3.921,9.244,6.259,20.026,17.333,22.968
				c5.095,1.354,10.49,0.731,15.625-0.004c3.942-0.564,12.277-3.442,15.838-0.423c3.132,2.656-1.008,7.161-1.949,10.097
				c-1.618,5.05-1.535,10.597,0.182,15.612c1.497,4.371,4.742,7.053,6.825,10.977c2.137,4.025-0.385,8.745,1.622,13.063
				c4.501,9.686,17.563,7.028,24.046,14.643c7.384,8.674,4.705,22.123,5.679,32.554c0.885,9.474,6.103,20.059,16.36,21.989
				c4.061,0.764,8.554-0.116,8.882-4.865c0.389-5.626-0.828-11.05,0.076-16.774c1.712-10.833,7.747-19.611,13.792-28.478
				c6.313-9.259,11.539-18.906,14.703-29.708c1.563-5.336,2.617-10.835,3.155-16.369c0.478-4.914,1.16-10.598-0.581-15.347
				c-3.391-9.246-15.318-6.755-22.112-12.013c-4.023-3.113-7.111-7.245-11.048-10.455c-4.252-3.466-8.365-4.577-13.712-4.654
				c-6.01-0.087-7.442-3.599-12.133-6.51c-4.724-2.932-10.003-1.452-14.693,0.68c-8.076,3.672-20.166,10.328-27.735,1.704
				c-2.794-3.183-3.671-8.4-0.603-11.693c3.652-3.921,9.902-4.181,13.756-8.256c7.419-7.845,6.756-19.841,12.739-28.502
				c6.248-9.045,18.475-10.547,27.173-16.326c7.725-5.133,14.56-13.603,14.168-23.358c39.254,0,78.508,0,117.762,0
				c5.547,0,11.094,0,16.642,0c-0.936,15.25-22.485,16.761-28.147,29.337c-3.004,6.673,0.981,13.881-5.41,19.182
				c-5.534,4.591-12.784,6.25-17.654,11.814c-9.003,10.284-8.54,26.238,1.441,35.667c7.627,7.204,17.686,11.32,25.5,18.425
				c10.944,9.952,19.23,23.139,22.802,37.539c1.842,7.427,2.478,15.079,4.012,22.565c1.064,5.192,2.647,16.081,9.291,16.978
				c6.496,0.877,13.063-8.42,16.807-12.602c5.139-5.74,9.828-11.884,13.984-18.371c4.031-6.292,7.447-12.894,10.513-19.702
				c3.059-6.794,6.385-12.565,12.423-17.114c5.503-4.147,15.689-7.956,18.475-14.72c3.644-8.844-9.947-9.658-15.167-10.735
				c-2.859-0.59-8.205-2.181-7.59-6.005c0.55-3.418,5.113-4.68,7.961-5.178c9.013-1.574,18.676,0.337,27.698,1.102
				C438.077,317.946,434.024,333.189,428.252,347.731z M441.672,280.919c-0.077,2.858-0.134,5.707-0.347,8.559
				c-0.216,2.888-0.401,5.784-0.741,8.66c-0.315,2.66-0.507,2.259-3.302,1.944c-6.481-0.73-13.01-1.599-19.546-1.49
				c-5.011,0.083-12.68,0.624-15.162,5.923c-3.152,6.728,5.706,9.743,10.676,10.44c3.705,0.52,13.441,0.947,12.277,6.859
				c-0.999,5.072-9.369,9.027-13.254,11.626c-5.09,3.405-9.804,7.037-13.098,12.291c-3.415,5.447-5.6,11.614-8.581,17.301
				c-3.077,5.87-6.59,11.513-10.477,16.88c-3.743,5.168-7.836,10.086-12.234,14.709c-2.949,3.099-9.381,11.616-14.374,8.601
				c-4.208-2.541-5.216-11.242-6.051-15.576c-1.216-6.312-1.832-12.726-3.129-19.023c-2.561-12.427-8.309-23.983-16.394-33.742
				c-6.594-7.96-14.611-14.036-23.306-19.486c-9.324-5.845-17.417-12.96-16.612-24.971c0.349-5.206,2.414-10.297,5.853-14.229
				c4.053-4.635,9.853-6.569,14.89-9.838c4.449-2.888,7.248-6.489,7.435-11.878c0.228-6.555,0.122-10.88,5.402-15.589
				c4.519-4.03,10.095-6.679,14.861-10.387c2.181-1.697,4.29-3.595,5.856-5.891c0.97-1.422,1.727-2.97,2.204-4.625
				c0.177-0.615,0.26-3.452,0.62-3.755c0.932-0.785,5.851,0,7.003,0c12.714,0,25.429,0,38.143,0c11.995,0,23.99,0,35.984,0
				c1.117,0,2.956-0.35,4.035,0c2.182,0.707,2.137,3.494,2.882,5.899c3.99,12.873,6.616,26.167,7.811,39.592
				C441.62,266.767,441.904,273.849,441.672,280.919z"/>
		</g>
		<g>
			<g>
				<path style="fill:#9FDAFE;" d="M422.299,140.343c-1.207-2.299-3.158-2.833-6.548-1.765c-3.197-5.379-5.465-6.215-11.564-4.265
					c2.473-8.918-2.653-21.611-14.227-10.418c-1.614,1.561-2.201,3.477-3.073,5.975c-0.844-0.697-1.773-1.842-2.972-2.399
					c-5.852-2.701-9.103-0.201-10.48,5.387c-0.55,2.221,0.031,4.722,0.108,7.253c-2.113,0.379-5.79,0.65-5.79,5.728
					c0,3.104,4.133,2.748,4.753,2.748c13.654,0.023,31.356,0.023,45.01,0.124C422.368,148.749,423.909,143.4,422.299,140.343z
					 M420.797,144.252c-0.372,1.834-1.711,2.299-3.344,2.299c-7.469,0-37.223,0.379-44.63,0.379c-2.454,0-2.663-0.937-2.841-1.525
					c-0.124-0.418,0.418-1.231,0.875-1.594c1.548-1.231,3.367-1.355,5.263-1.084c0.488,0.07,1.393-0.023,1.44-0.201
					c0.132-0.55,0.132-1.316-0.178-1.742c-1.308-1.834-2.245-3.715-2.051-6.084c0.17-2.043,1.711-4.814,3.235-5.38
					c2.09-0.774,4.629-0.077,6.254,1.803c0.712,0.828,1.254,1.811,1.989,2.624c0.457,0.503,0.557,1.463,1.695,1.231
					c1.146-0.232,0.766-1.401,0.743-2.082c-0.108-2.833,0.464-5.418,2.376-7.57c1.718-1.927,3.893-3.827,6.463-3.181
					c5.469,1.373,5.596,7.763,4.404,11.409c-0.426,1.308-0.836,2.632-1.177,3.963c-0.093,0.379-0.457,0.975,0.163,1.246
					c0.611,0.279,0.975-0.147,1.331-0.41c0.96-0.712,1.773-1.641,2.786-2.268c3.29-2.051,8.979,0.55,8.189,5.093
					c-0.054,0.31,0.077,0.782,0.673,1.029c0.604,0.248,1.223-0.441,1.285-0.534c0.999-1.455,2.368-1.912,3.909-1.084
					C421.115,141.38,421.091,142.82,420.797,144.252z"/>
				<path style="fill:#9FDAFE;" d="M148.04,98.219c-0.488-0.24-0.983-0.488-1.54-0.759c0.387-0.635,0.704-1.115,0.983-1.618
					c1.502-2.663,1.989-5.511,1.502-8.522c-0.534-3.282-7.098-6.866-11.378-4.033c-1.525,1.014-2.934,2.221-4.443,3.375
					c-2.167-3.847-5.356-6.556-10.047-5.619c-5.952,1.192-9.412,5.542-8.452,12.013c-1.803-0.619-2.934-0.743-4.195-0.689
					c-3.924,0.17-7.554,2.934-8.731,6.602c-1.269,3.986,0.217,6.432,4.396,6.889c2.926,0.325,5.883,0.48,8.824,0.519
					c8.971,0.101,17.942,0.194,26.913,0.101c2.5-0.023,5.109-0.433,7.075-2.345C151.028,102.097,150.617,99.504,148.04,98.219z
					 M147.993,101.486c-0.186,0.627-0.697,1.447-1.262,1.633c-1.509,0.511-8.886,1.625-34.382,0.759
					c-2.237-0.039-4.489-0.379-6.703-0.759c-2.136-0.364-2.547-1.223-1.889-3.328c0.759-2.446,3.576-4.536,6.517-4.675
					c1.927-0.093,3.955-0.418,5.565,1.192c0.178,0.178,0.968,0.093,1.053-0.07c0.248-0.511,0.395-1.13,0.395-1.703
					c-0.015-1.982-0.372-4.002-0.116-5.945c0.418-3.197,4.335-4.807,6.579-4.977c3.011-0.225,6.13,1.649,7.152,4.218
					c0.139,0.356,0.457,1.432,0.751,2.283c0.186,0.542,0.867,0.697,1.262,0.286c1.06-1.099,2.795-2.954,3.607-3.723
					c2.278-2.158,4.893-3.252,8.438-0.729c1.509,1.076,1.98,3.616,1.756,5.164c-0.286,2.02-2.562,5.534-3.692,7.26
					c-0.263,0.402,0.031,0.929,0.511,0.929C148.102,99.334,148.055,101.246,147.993,101.486z"/>
				<path style="fill:#9FDAFE;" d="M373.975,45.281c-0.488-0.24-0.983-0.488-1.54-0.759c0.387-0.635,0.704-1.115,0.983-1.618
					c1.502-2.663,1.989-5.511,1.502-8.522c-0.534-3.282-7.098-6.866-11.378-4.033c-1.525,1.014-2.934,2.221-4.443,3.375
					c-2.167-3.847-5.356-6.556-10.047-5.619c-5.952,1.192-9.412,5.542-8.452,12.013c-1.803-0.619-2.934-0.743-4.195-0.689
					c-3.924,0.17-7.555,2.934-8.731,6.602c-1.269,3.986,0.217,6.432,4.396,6.889c2.926,0.325,5.883,0.48,8.824,0.519
					c8.971,0.101,17.942,0.194,26.913,0.101c2.5-0.023,5.109-0.433,7.075-2.345C376.962,49.159,376.552,46.566,373.975,45.281z
					 M373.928,48.547c-0.186,0.627-0.697,1.447-1.262,1.633c-1.509,0.511-8.886,1.625-34.382,0.759
					c-2.237-0.039-4.489-0.379-6.703-0.759c-2.136-0.364-2.547-1.223-1.889-3.328c0.759-2.446,3.576-4.536,6.517-4.675
					c1.927-0.093,3.955-0.418,5.565,1.192c0.178,0.178,0.968,0.093,1.053-0.07c0.248-0.511,0.395-1.13,0.395-1.703
					c-0.015-1.982-0.372-4.002-0.116-5.945c0.418-3.197,4.335-4.807,6.579-4.977c3.011-0.224,6.13,1.649,7.152,4.218
					c0.139,0.356,0.457,1.432,0.751,2.283c0.186,0.542,0.867,0.697,1.262,0.286c1.06-1.099,2.795-2.954,3.607-3.723
					c2.278-2.158,4.893-3.252,8.438-0.729c1.509,1.076,1.98,3.616,1.756,5.164c-0.286,2.02-2.562,5.534-3.692,7.26
					c-0.263,0.402,0.031,0.929,0.511,0.929C374.037,46.395,373.99,48.307,373.928,48.547z"/>
			</g>
			<g>
				<g>
					<g>
						<g>
							<g>
								<circle style="fill:#EFA760;" cx="250" cy="51.98" r="30.551"/>
							</g>
							<g>
								<path style="fill:#EA8C63;" d="M280.55,51.98c0,16.87-13.68,30.55-30.55,30.55s-30.55-13.68-30.55-30.55
									c0-0.54,0.01-1.09,0.04-1.62c0.85,16.12,14.18,28.93,30.51,28.93s29.66-12.81,30.51-28.93
									C280.54,50.89,280.55,51.44,280.55,51.98z"/>
							</g>
							<circle style="fill:#F2C96D;" cx="250" cy="51.98" r="24.061"/>
							<g>
								<path style="fill:#EFA760;" d="M274.06,51.98c0,13.29-10.77,24.06-24.06,24.06s-24.06-10.77-24.06-24.06
									c0-0.69,0.03-1.37,0.09-2.05c1.04,12.33,11.37,22,23.97,22s22.93-9.67,23.97-22C274.03,50.61,274.06,51.29,274.06,51.98z"/>
							</g>
							<g>
								<path style="fill:#EFA760;" d="M250,37.776L250,37.776c-1.937,0-3.507,1.57-3.507,3.507v21.395
									c0,1.937,1.57,3.507,3.507,3.507l0,0c1.937,0,3.507-1.57,3.507-3.507V41.282C253.507,39.346,251.937,37.776,250,37.776z"/>
							</g>
							<path style="opacity:0.25;fill:#FFFFFF;" d="M243.226,34.844c-1.924,1.003-3.672,2.209-5.216,3.771
								c-2.032,2.056-2.83,3.887-3.504,6.638c-1.027,4.197-0.14,8.489,3.518,11.084c1.882,1.335,4.568,1.364,6.768,1.153
								c3.563-0.342,6.246-1.665,9.031-3.856c4.764-3.75,6.884-9.426,4.234-15.133c-0.608-1.308-1.583-2.789-2.722-3.684
								c-1.045-0.822-2.572-1.151-3.839-1.504C248.254,32.41,245.667,33.431,243.226,34.844z"/>
							<path style="opacity:0.25;fill:#FFFFFF;" d="M236.504,27.08c-0.995,0.528-1.884,1.125-2.646,1.85
								c-1.002,0.954-1.346,1.737-1.577,2.878c-0.352,1.741,0.339,3.392,2.451,4.183c1.086,0.407,2.546,0.24,3.729,0.009
								c1.916-0.374,3.308-1.079,4.712-2.138c2.402-1.811,3.275-4.215,1.558-6.312c-0.394-0.481-0.995-1.006-1.657-1.287
								c-0.607-0.258-1.452-0.287-2.156-0.344C239.113,25.775,237.759,26.354,236.504,27.08z"/>
						</g>
					</g>
					<g>
						<path d="M250,20.429c-17.168,0-31.551,14.379-31.551,31.551c0,17.169,14.381,31.551,31.551,31.551
							c17.17,0,31.551-14.38,31.551-31.551C281.551,34.806,267.171,20.429,250,20.429z M250,81.531
							c-16.081,0-29.551-13.471-29.551-29.551c0-16.076,13.472-29.551,29.551-29.551c16.08,0,29.551,13.474,29.551,29.551
							C279.551,68.061,266.082,81.531,250,81.531z"/>
						<path d="M250,26.919c-13.627,0-25.061,11.426-25.061,25.061c0,13.637,11.429,25.061,25.061,25.061
							c13.256,0,24.537-10.828,25.024-24.083C275.538,38.957,264.049,26.919,250,26.919z M250,75.041
							c-12.543,0-23.061-10.516-23.061-23.061c0-12.542,10.519-23.061,23.061-23.061c12.183,0,22.553,9.943,23.023,22.117
							C273.521,63.931,262.95,75.041,250,75.041z"/>
						<path d="M250,36.775c-6.593,0-4.507,11.943-4.507,15.902c0,3.932-1.835,14.507,4.507,14.507
							c6.333,0,4.507-10.616,4.507-14.507C254.507,48.718,256.593,36.775,250,36.775z M252.507,62.678
							c0,4.236-4.156,2.016-5.014-0.288c-0.663-1.78,0-5.099,0-6.977c0-3.957-1.393-10.428,0-14.131
							c1.257-3.342,3.917-3.034,5.014,0.118c0.512,1.471,0,4.311,0,5.847C252.507,52.391,252.507,57.534,252.507,62.678z"/>
					</g>
				</g>
				<g>
					<g>
						<g>
							<g>
								<circle style="fill:#EFA760;" cx="181.029" cy="51.98" r="24.061"/>
							</g>
							<g>
								<path style="fill:#EA8C63;" d="M205.09,51.98c0,13.29-10.77,24.06-24.06,24.06c-13.29,0-24.06-10.77-24.06-24.06
									c0-0.53,0.02-1.05,0.05-1.57c0.81,12.56,11.25,22.49,24.01,22.49c12.76,0,23.2-9.93,24.01-22.49
									C205.07,50.93,205.09,51.45,205.09,51.98z"/>
							</g>
							<circle style="fill:#F2C96D;" cx="181.029" cy="51.98" r="18.95"/>
							<g>
								<path style="fill:#EFA760;" d="M199.98,51.98c0,10.47-8.49,18.95-18.95,18.95c-10.47,0-18.95-8.48-18.95-18.95
									c0-0.63,0.03-1.26,0.09-1.88c0.94,9.59,9.02,17.08,18.86,17.08c9.83,0,17.92-7.49,18.86-17.08
									C199.95,50.72,199.98,51.35,199.98,51.98z"/>
							</g>
							<g>
								<path style="fill:#EFA760;" d="M181.029,40.793L181.029,40.793c-1.525,0-2.762,1.237-2.762,2.762v16.851
									c0,1.525,1.237,2.762,2.762,2.762l0,0c1.525,0,2.762-1.237,2.762-2.762V43.555C183.79,42.029,182.554,40.793,181.029,40.793
									z"/>
							</g>
							<path style="opacity:0.25;fill:#FFFFFF;" d="M174.806,37.412c-1.427,0.744-2.723,1.638-3.868,2.797
								c-1.506,1.524-2.099,2.882-2.598,4.922c-0.762,3.113-0.104,6.295,2.609,8.219c1.395,0.99,3.388,1.012,5.019,0.855
								c2.642-0.254,4.632-1.234,6.697-2.859c3.533-2.781,5.105-6.99,3.14-11.221c-0.451-0.97-1.174-2.068-2.019-2.732
								c-0.775-0.609-1.907-0.853-2.847-1.115C178.534,35.607,176.616,36.364,174.806,37.412z"/>
							<path style="opacity:0.25;fill:#FFFFFF;" d="M169.821,31.654c-0.738,0.391-1.397,0.834-1.962,1.372
								c-0.743,0.708-0.998,1.288-1.169,2.134c-0.261,1.291,0.251,2.515,1.817,3.102c0.806,0.302,1.888,0.178,2.765,0.007
								c1.421-0.277,2.453-0.8,3.494-1.585c1.781-1.343,2.428-3.125,1.155-4.681c-0.292-0.357-0.738-0.746-1.229-0.954
								c-0.45-0.191-1.076-0.213-1.599-0.255C171.756,30.687,170.752,31.116,169.821,31.654z"/>
						</g>
					</g>
					<g>
						<g>
							<path d="M181.029,77.041c-13.637,0-25.061-11.421-25.061-25.061c0-13.638,11.423-25.061,25.061-25.061
								c13.638,0,25.061,11.422,25.061,25.061C206.09,65.622,194.668,77.041,181.029,77.041z M181.029,28.919
								c-12.549,0-23.061,10.512-23.061,23.061c0,12.545,10.513,23.061,23.061,23.061c12.549,0,23.061-10.515,23.061-23.061
								C204.09,39.43,193.579,28.919,181.029,28.919z"/>
						</g>
						<g>
							<path d="M181.029,71.93c-10.848,0-19.95-9.096-19.95-19.95c0-10.856,9.099-19.95,19.95-19.95
								c10.552,0,19.532,8.62,19.92,19.172C201.358,62.346,192.213,71.93,181.029,71.93z M181.029,34.03
								c-23.141,0-23.127,35.9,0,35.9C204.153,69.93,204.174,34.03,181.029,34.03z"/>
						</g>
						<g>
							<path d="M181.029,64.167c-5.418,0-3.762-9.452-3.762-12.736c0-3.258-1.452-11.638,3.762-11.638
								c5.207,0,3.762,8.409,3.762,11.638C184.791,54.715,186.446,64.167,181.029,64.167z M181.029,41.793
								c-3.043,0-3.133,20.374,0,20.374C184.178,62.167,184.04,41.793,181.029,41.793z"/>
						</g>
					</g>
				</g>
				<g>
					<g>
						<g>
							<g>
								<circle style="fill:#EFA760;" cx="318.964" cy="51.98" r="24.061"/>
							</g>
							<g>
								<path style="fill:#EA8C63;" d="M343.022,51.98c0,13.29-10.77,24.06-24.06,24.06c-13.29,0-24.06-10.77-24.06-24.06
									c0-0.48,0.01-0.95,0.04-1.42c0.74,12.62,11.21,22.63,24.02,22.63c12.81,0,23.28-10.01,24.02-22.63
									C343.012,51.03,343.022,51.5,343.022,51.98z"/>
							</g>
							<circle style="fill:#F2C96D;" cx="318.971" cy="51.98" r="18.95"/>
							<g>
								<path style="fill:#EFA760;" d="M337.912,51.98c0,10.47-8.48,18.95-18.95,18.95c-10.46,0-18.95-8.48-18.95-18.95
									c0-0.7,0.04-1.38,0.11-2.06c1.02,9.5,9.07,16.9,18.84,16.9c9.78,0,17.82-7.4,18.84-16.9
									C337.872,50.6,337.912,51.28,337.912,51.98z"/>
							</g>
							<g>
								<path style="fill:#EFA760;" d="M318.964,40.793L318.964,40.793c1.525,0,2.762,1.237,2.762,2.762v16.851
									c0,1.525-1.237,2.762-2.762,2.762l0,0c-1.525,0-2.762-1.237-2.762-2.762V43.555
									C316.202,42.029,317.438,40.793,318.964,40.793z"/>
							</g>
							<path style="opacity:0.25;fill:#FFFFFF;" d="M313.179,38.474c-1.386,0.723-2.645,1.591-3.757,2.716
								c-1.463,1.481-2.039,2.8-2.524,4.781c-0.74,3.023-0.101,6.115,2.534,7.984c1.356,0.962,3.291,0.983,4.875,0.83
								c2.566-0.247,4.499-1.199,6.505-2.778c3.432-2.701,4.959-6.79,3.05-10.9c-0.438-0.942-1.141-2.009-1.961-2.654
								c-0.753-0.592-1.852-0.829-2.765-1.083C316.801,36.721,314.938,37.457,313.179,38.474z"/>
							<path style="opacity:0.25;fill:#FFFFFF;" d="M308.337,32.882c-0.717,0.38-1.357,0.81-1.906,1.333
								c-0.722,0.687-0.969,1.251-1.136,2.073c-0.254,1.254,0.244,2.443,1.765,3.013c0.783,0.293,1.834,0.173,2.686,0.006
								c1.38-0.269,2.383-0.777,3.394-1.54c1.73-1.305,2.359-3.036,1.122-4.547c-0.284-0.346-0.717-0.724-1.194-0.927
								c-0.437-0.186-1.046-0.207-1.553-0.248C310.217,31.942,309.241,32.359,308.337,32.882z"/>
						</g>
					</g>
					<g>
						<g>
							<path d="M318.964,77.041c-13.637,0-25.062-11.421-25.062-25.061c0-13.638,11.423-25.061,25.062-25.061
								c13.638,0,25.061,11.423,25.061,25.061C344.024,65.621,332.603,77.041,318.964,77.041z M318.964,28.919
								c-12.549,0-23.062,10.512-23.062,23.061c0,12.545,10.514,23.061,23.062,23.061c12.549,0,23.061-10.515,23.061-23.061
								C342.024,39.43,331.514,28.919,318.964,28.919z"/>
						</g>
						<g>
							<path d="M318.964,71.93c-10.848,0-19.95-9.095-19.95-19.95c0-10.856,9.098-19.95,19.95-19.95
								c10.552,0,19.532,8.62,19.92,19.172C339.293,62.347,330.148,71.93,318.964,71.93z M318.964,34.03
								c-23.141,0-23.127,35.9,0,35.9C342.088,69.93,342.11,34.03,318.964,34.03z"/>
						</g>
						<g>
							<path d="M318.964,64.167c-5.417,0-3.762-9.452-3.762-12.736c0-3.258-1.452-11.638,3.762-11.638
								c5.207,0,3.762,8.409,3.762,11.638C322.725,54.715,324.381,64.167,318.964,64.167z M318.964,41.793
								c-3.042,0-3.133,20.374,0,20.374C322.112,62.167,321.975,41.793,318.964,41.793z"/>
						</g>
					</g>
				</g>
			</g>
			<g>
				<g>
					<g>
						<path d="M367.415,139.401c-0.991,0-7.573-4.969-4.596-5.956C364.243,132.974,370.354,139.401,367.415,139.401z"/>
					</g>
					<g>
						<path d="M352.946,128c-1.633,0-13.03-6.909-10.914-8.414c0.979-0.697,6.355,3.309,7.313,3.902
							C349.806,123.772,356.295,128,352.946,128z M151.268,125.302c-3.195,0,2.313-3.555,2.655-3.755
							c1.08-0.629,7.5-5.053,8.512-4.271C164.474,118.85,153.236,125.302,151.268,125.302z M331.164,116.02
							c-1.66,0-13.89-4.691-11.962-6.56c0.856-0.83,6.771,2.261,7.812,2.689C327.51,112.353,334.663,116.02,331.164,116.02z
							 M173.44,114.055c-3.345,0,2.693-3.151,3.074-3.298c1.164-0.45,8.168-3.825,9.045-2.912
							C187.411,109.772,175.451,114.055,173.44,114.055z M307.787,107.54c-1.659,0-14.339-2.697-12.607-4.88
							c0.738-0.93,6.994,1.331,8.084,1.612c0.967,0.25,4.864,0.84,5.097,1.545C308.509,106.262,309.584,107.54,307.787,107.54z
							 M197.047,106.23c-3.336,0,2.794-2.726,3.367-2.862c1.214-0.289,8.58-2.707,9.332-1.699
							C211.416,103.908,199.059,106.23,197.047,106.23z M283.487,102.22c-1.654,0-15.616-1.865-12.617-3.431
							c1.83-0.956,8.481,0.516,10.314,1.077C281.348,99.915,286.888,102.22,283.487,102.22z M221.47,101.513
							c-3.097,0,1.019-2.106,1.105-2.146c1.086-0.508,10.577-1.787,11.568-0.989C236.782,100.507,223.087,101.513,221.47,101.513z
							 M258.725,99.837c-1.833,0-15.183,0.533-12.81-1.985c1.062-1.127,8.112-0.183,9.583-0.114c0.85,0.039,3.637-0.492,3.96,0.421
							C259.696,98.831,259.862,99.837,258.725,99.837z"/>
					</g>
					<g>
						<path d="M136.317,136.114c-2.932,0,3.456-5.974,4.808-5.748C144.128,130.868,137.26,136.114,136.317,136.114z"/>
					</g>
				</g>
				<g>
					<g>
						<g>
							<path style="fill:#F46C7A;" d="M387.59,144.29c-13.02,0-23.57,10.55-23.57,23.57s23.57,45.37,23.57,45.37
								s23.57-32.35,23.57-45.37S400.6,144.29,387.59,144.29z M387.59,178.49c-6.14,0-11.12-4.98-11.12-11.12
								s4.98-11.12,11.12-11.12c6.14,0,11.12,4.98,11.12,11.12S393.73,178.49,387.59,178.49z"/>
						</g>
					</g>
					<g>
						<path style="opacity:0.2;" d="M359.323,219.726c3.314,0,6.628,0,9.943,0c1.851,0,43.717,0.069,45.567,0
							c1.318-0.049,3.322-1.173,1.079-2c-0.793-0.292-42.314,0-43.132,0c-2.18,0-4.36,0-6.54,0c-1.941,0-3.898-0.072-5.838,0
							c-0.301,0.011-0.771-0.1-1.055,0C358.378,218.069,357.748,219.726,359.323,219.726z"/>
						<path style="opacity:0.2;" d="M379.323,224.232c3.314,0,6.628,0,9.943,0c1.851,0,3.717,0.069,5.567,0
							c1.318-0.049,3.322-1.173,1.079-2c-0.793-0.292-2.314,0-3.132,0c-2.18,0-4.36,0-6.54,0c-1.941,0-3.898-0.072-5.838,0
							c-0.301,0.011-0.771-0.1-1.055,0C378.378,222.575,377.748,224.232,379.323,224.232z"/>
					</g>
					<g>
						<g>
							<path style="fill:#CC5068;" d="M411.08,165.96c-5.14,14.98-23.49,38.89-23.49,38.89s-18.35-23.91-23.49-38.89
								c-0.05,0.62-0.08,1.26-0.08,1.9c0,13.02,23.57,45.37,23.57,45.37s23.57-32.35,23.57-45.37
								C411.16,167.22,411.13,166.58,411.08,165.96z"/>
						</g>
					</g>
					<path style="opacity:0.2;fill:#FFFFFF;" d="M374.831,151.352c-2.661,0.987-7.307,8.477-4.738,10.982
						c3.774,3.679,10.692-6.061,10.851-9.2C381.133,149.391,377.051,149.281,374.831,151.352z"/>
					<g>
						<g>
							<path style="opacity:0.2;fill:#FFFFFF;" d="M387.59,144.29c-13.02,0-23.57,10.55-23.57,23.57c0,0.78,0.08,1.62,0.24,2.52
								c1.61-11.44,11.44-20.24,23.33-20.24c11.88,0,21.72,8.8,23.33,20.24c0.16-0.9,0.24-1.74,0.24-2.52
								C411.16,154.84,400.6,144.29,387.59,144.29z"/>
						</g>
					</g>
					<g>
						<g>
							<path d="M387.588,214.231c-1.899,0-5.1-6.542-5.943-7.798c-3.456-5.147-6.774-10.395-9.821-15.795
								c-6.224-11.027-12.635-23.317-5.26-35.481c8.254-13.615,27.746-15.789,38.766-4.278c10.299,10.758,6.615,23.394,0.588,35.033
								c-3.313,6.399-7.113,12.548-11.08,18.559C393.869,205.939,389.775,214.231,387.588,214.231z M387.588,145.29
								c-8.4,0-16.262,4.84-20.091,12.307c-3.392,6.616-2.752,13.074-0.067,19.713c4.933,12.197,12.574,23.51,20.158,34.203
								c7.582-10.692,15.233-22.006,20.157-34.204c2.608-6.46,3.324-12.712,0.182-19.225
								C404.199,150.354,396.173,145.29,387.588,145.29z"/>
						</g>
						<g>
							<path d="M387.588,179.487c-15.645,0-15.589-24.24,0-24.24C403.18,155.248,403.233,179.487,387.588,179.487z M387.588,157.248
								c-13.126,0-12.968,20.24,0,20.24C400.544,177.487,400.733,157.248,387.588,157.248z"/>
						</g>
					</g>
				</g>
				<g>
					<g>
						<g>
							<path style="fill:#C4C6C6;" d="M152.02,147.91v53.37h-26.66c0-1.83-0.33-3.59-0.94-5.21c-2.11-5.61-7.53-9.61-13.89-9.61
								c-6.35,0-11.77,4-13.88,9.61c-0.61,1.62-0.94,3.38-0.94,5.21H84.4c-2.02,0-3.65-1.63-3.65-3.65v-49.72
								c0-1.83,1.48-3.31,3.31-3.31h64.65C150.54,144.6,152.02,146.08,152.02,147.91z"/>
							<path style="opacity:0.25;fill:#FFFFFF;" d="M131.534,155.94c1.371,0,2.475,1.135,2.427,2.505
								c0,0.008-0.001,0.017-0.001,0.025v25.042c0,1.341-1.087,2.428-2.428,2.428H92.348c-1.341,0-2.428-1.087-2.428-2.428v-25.144
								c0-1.341,1.087-2.428,2.428-2.428H131.534z"/>
							<path style="opacity:0.25;fill:#FFFFFF;" d="M152.02,147.91v2.46H80.75v-2.46c0-1.83,1.48-3.31,3.31-3.31h64.65
								C150.54,144.6,152.02,146.08,152.02,147.91z"/>
							<path style="fill:#6B6B6B;" d="M80.75,196.07h15.9c-0.61,1.62-0.94,3.38-0.94,5.21H84.4c-2.02,0-3.65-1.63-3.65-3.65V196.07z
								"/>
							<path style="fill:#6B6B6B;" d="M125.36,201.28H95.71c0-8.18,6.64-14.82,14.82-14.82
								C118.72,186.46,125.36,193.1,125.36,201.28z"/>
							<line style="fill:#9FDAFE;" x1="125.356" y1="201.282" x2="121.104" y2="201.282"/>
							<path style="fill:#9FDAFE;" d="M195.46,180.6v16.01c0,2.57-2.09,4.67-4.67,4.67h-38.77v-42.86c0-2.25,1.83-4.09,4.09-4.09
								h23.69c1.78,0,3.41,1,4.22,2.59l5.88,11.58l1.36,2.69l2.07,4.08l1.62,3.18C195.29,179.12,195.46,179.85,195.46,180.6z"/>
							<path style="fill:#86C9EA;" d="M193.33,175.27c-1.14,0.13-2.27,0.37-3.41,0.44c-1.15,0.08-2.3-0.01-3.46,0.04
								c-1.42,0.05-2.79,0.24-4.2,0.42c-2.44,0.32-4.79,0.41-7.24,0.41c-1.02,0-2.07,0.06-3.09-0.01c-0.93-0.06-1.86-0.24-2.79-0.32
								c-1.64-0.14-3.35-0.3-4.92-0.78c-0.88-0.27-1.69-0.56-2.33-1.24c-0.71-0.76-1.09-1.67-0.99-2.69
								c0.04-0.43,0.14-0.84,0.14-1.28c0-0.31-0.06-0.69,0.18-0.93c0.6-0.61,1.23-0.78,1.71-0.97c0.58-0.24,1.14-0.45,1.76-0.58
								c1.61-0.34,3.32-0.24,4.96-0.24c2.52,0,5.04-0.09,7.57-0.02c2.79,0.09,5.59,0.29,8.37,0.56c1.4,0.14,2.87,0.22,4.31,0.42
								l1.36,2.69L193.33,175.27z"/>
							<path style="fill:#FFFFFF;" d="M191.26,171.19l-0.11,0.27h-29.16v-17.13h17.81c1.78,0,3.41,1,4.22,2.59L191.26,171.19z"/>
							<path style="fill:#9FDAFE;" d="M165.411,167.168c2.018-2.018,4.037-4.037,6.055-6.055c1.127-1.127,0.661-0.611,1.746-1.779
								c0.773-0.833,1.308-2.738-0.561-1.875c-0.661,0.305-1.409,1.409-1.907,1.907c-1.328,1.327-1.011,1.044-2.338,2.372
								c-1.182,1.182-2.418,2.33-3.556,3.555c-0.176,0.19-0.531,0.409-0.643,0.643C163.826,166.735,164.452,168.127,165.411,167.168
								z"/>
							<path style="fill:#9FDAFE;" d="M169.579,167.802c2.018-2.018,4.933-4.838,6.018-6.006c0.773-0.833,1.308-2.738-0.561-1.875
								c-0.661,0.305-6.548,6.415-6.66,6.649C167.994,167.369,168.62,168.761,169.579,167.802z"/>
							<path style="fill:#FFFFFF;" d="M195.463,191.148l-8.125,0c-1.086,0-1.967-0.881-1.967-1.967v-5.651
								c0-1.086,0.881-1.967,1.967-1.967l8.125,0L195.463,191.148z"/>
							<g>
								<circle style="fill:#424242;" cx="110.533" cy="201.729" r="10.581"/>
								<circle style="fill:#FFFFFF;" cx="110.533" cy="201.729" r="4.5"/>
							</g>
							<path style="fill:#C4C6C6;" d="M171.254,165.57h-0.547c-1.458,0-2.639,1.182-2.639,2.639v6.507
								c0,1.458,1.182,2.639,2.639,2.639h0.547c1.458,0,2.639-1.182,2.639-2.639v-6.507
								C173.893,166.752,172.712,165.57,171.254,165.57z"/>
							<path style="opacity:0.2;fill:#FFFFFF;" d="M170.118,167.851c-0.25,0.269-0.257,0.72-0.348,1.071
								c-0.141,0.545-0.287,1.085-0.348,1.647c-0.108,0.987-0.279,2.403,0.232,3.313c0.164,0.292,0.548,0.672,0.911,0.679
								c0.417,0.008,0.612-0.487,0.76-0.818c0.533-1.199,0.499-2.574,0.437-3.858c-0.027-0.562-0.125-1.096-0.357-1.606
								C171.287,168.019,170.851,167.176,170.118,167.851z"/>
							<line style="fill:#9FDAFE;" x1="80.75" y1="196.07" x2="96.652" y2="196.07"/>
						</g>
						<path style="fill:#6B6B6B;" d="M195.46,196.07v0.54c0,2.57-2.09,4.67-4.67,4.67h-65.43c0-1.83-0.33-3.59-0.94-5.21H195.46z"/>
						<path style="fill:#86C9EA;" d="M159.878,201.279h-3.777c0-7.925,6.423-14.348,14.348-14.348
							c7.925,0,14.348,6.423,14.348,14.348h-3.777"/>
						<g>
							<g>
								<circle style="fill:#424242;" cx="170.448" cy="201.729" r="10.581"/>
							</g>
						</g>
						<g>
							<path style="opacity:0.2;" d="M86.25,219.726c3.314,0,6.628,0,9.943,0c1.851,0,93.717,0.069,95.567,0
								c1.318-0.049,3.322-1.173,1.079-2c-0.793-0.292-92.314,0-93.132,0c-2.18,0-4.36,0-6.54,0c-1.941,0-3.898-0.072-5.838,0
								c-0.301,0.011-0.771-0.1-1.055,0C85.304,218.069,84.675,219.726,86.25,219.726z"/>
							<path style="opacity:0.2;" d="M106.25,224.232c3.314,0,6.628,0,9.943,0c1.851,0,53.717,0.069,55.567,0
								c1.318-0.049,3.322-1.173,1.079-2c-0.793-0.292-52.314,0-53.132,0c-2.18,0-4.36,0-6.54,0c-1.941,0-3.898-0.072-5.838,0
								c-0.301,0.011-0.771-0.1-1.055,0C105.304,222.575,104.675,224.232,106.25,224.232z"/>
						</g>
						<g>
							<circle style="fill:#FFFFFF;" cx="170.448" cy="201.729" r="4.5"/>
						</g>
					</g>
					<g>
						<path d="M196.463,180.588c-0.056-3.011-2.566-6.419-3.874-8.996c-2.18-4.294-4.36-8.587-6.54-12.881
							c-1.568-3.088-3.169-5.315-7.04-5.376c-4.327-0.067-8.66,0-12.987,0c-2.516,0-5.031,0-7.546,0
							c-1.909,0-3.825-0.181-5.452,1.074c0-4.018,1.199-10.425-4.47-10.812c-2.556-0.175-5.186,0-7.746,0
							c-11.258,0-22.516,0-33.773,0c-7.551,0-15.334-0.556-22.869,0c-4.259,0.314-4.414,3.772-4.414,7.032c0,4.645,0,9.29,0,13.936
							c0,10.371,0,20.741,0,31.112c0,0.766-0.068,1.57,0.03,2.334c0.434,3.364,3.112,4.272,6.046,4.272c2.802,0,5.604,0,8.406,0
							c0.7,0,4.09-0.385,4.623,0c0.554,0.401,0.98,3.982,1.509,4.957c0.976,1.799,2.43,3.32,4.176,4.384
							c3.533,2.152,8.076,2.232,11.679,0.188c1.67-0.947,3.101-2.32,4.12-3.947c0.514-0.822,0.928-1.714,1.221-2.638
							c0.179-0.564,0.259-2.651,0.59-2.944c0.493-0.437,3.042,0,3.885,0c8.977,0,17.953,0.013,26.93,0
							c1.472-0.002,3.346-0.27,4.791-0.004c0.146,0.027,1.004-0.115,1.14,0c0.277,0.234,0.381,2.488,0.526,2.945
							c0.656,2.071,1.911,3.946,3.569,5.35c6.669,5.647,17.295,1.806,18.841-6.791c0.327-1.816,0.264-1.505,2.067-1.505
							c0.829,0,1.658,0,2.487,0c2.827,0,6.217,0.536,8.415-1.662c1.855-1.854,1.663-4.24,1.663-6.619c0-2.972,0-5.945,0-8.917
							C196.463,183.583,196.463,182.085,196.463,180.588z M183.129,157.376c2.215,4.362,4.429,8.724,6.644,13.086
							c-1.926,0-3.852,0-5.779,0c-1.55,0-3.101,0-4.651,0c-1.042,0-4.556,0-4.556,0s-0.034-4.11-1.23-5.048
							c-1.323-1.038-3.479-1.17-4.883-0.222c-1.803,1.217-1.207,2.682-1.606,4.384c-0.288,1.229-0.24,0.887-1.759,0.887
							c-0.74,0-1.955,0.218-2.313-0.231c-0.271-0.341,0-2.021,0-2.451c0-1.535,0-3.07,0-4.605c0-1.414,0-2.828,0-4.243
							c0-0.703-0.348-2.583,0-3.194c0.449-0.789,2.155-0.404,3.267-0.404c3.271,0,6.542,0,9.813,0
							C178.494,155.334,181.803,154.764,183.129,157.376z M169.068,172.463c2.223,0,4.529-0.839,3.825,2.191
							c-0.324,1.396-2.068,2.511-3.345,1.221C168.76,175.078,169.068,173.475,169.068,172.463z M169.068,170.463
							c0-0.917-0.256-2.353,0.305-3.152c1.13-1.61,3.166-0.56,3.52,0.961C173.596,171.291,171.307,170.463,169.068,170.463z
							 M153.022,158.423c0-3.087,4.809-3.901,7.201-3.089c1.155,0.392,0.374-0.297,0.772,0.577c0.341,0.75,0,2.463,0,3.282
							c0,3.034,0,6.067,0,9.101c0,1.732-0.56,3.603,1.281,4.168c1.149,0.353,2.601-0.228,3.786,0
							c1.408,0.271,0.908,0.179,1.006,1.807c0.232,3.88,5.743,6.109,7.539,1.862c0.298-0.705-0.111-3.083,0.286-3.544
							c0.22-0.256,1.016-0.125,1.446-0.125c2.898,0,5.795,0,8.693,0c1.274,0,4.863-0.608,5.848,0.18
							c0.89,0.711,1.518,2.989,2.027,3.993c0.602,1.187,1.54,2.555,1.552,3.927c-2.64,0-8.723-1.21-9.899,1.975
							c-0.568,1.54-0.208,3.728-0.19,5.332c0.024,2.19,0.477,3.992,3.018,4.278c1.72,0.194,3.57,0,5.301,0
							c0.256,0,1.558-0.185,1.748,0c0.139,0.136,0.167,2.422,0.026,2.631c-0.439,0.647-2.672,0.291-3.624,0.291
							c-1.52,0-4.639,0.624-6.025,0c-0.716-0.322-0.942-1.257-1.426-2.016c-0.883-1.386-1.991-2.625-3.263-3.664
							c-2.505-2.047-5.634-3.267-8.867-3.437c-3.393-0.178-6.802,0.796-9.584,2.746c-1.239,0.868-2.355,1.926-3.289,3.116
							c-0.662,0.843-1.378,2.844-2.186,3.255c-0.335,0.171-2.513,0.173-2.824,0c-0.52-0.29-0.354-0.611-0.354-1.416
							c0-0.54,0-1.079,0-1.619c0-3.523,0-7.045,0-10.568C153.022,173.786,153.022,166.105,153.022,158.423z M194.463,182.563
							c0,1.264,0,2.528,0,3.793c0,0.584,0.397,3.39,0,3.793c-0.484,0.493-6.638,0.317-7.369-0.066
							c-1.214-0.637-1.381-6.502-0.244-7.387c0.673-0.523,2.76-0.132,3.518-0.132C191.733,182.563,193.098,182.563,194.463,182.563z
							 M84.063,145.596c12.807,0,25.614,0,38.421,0c7.247,0,14.495,0,21.742,0c1.417,0,3.021-0.213,4.426,0
							c2.59,0.392,2.37,2.392,2.37,4.374c0,14.502,0,29.005,0,43.507c0,1.804,0.137,1.593-1.721,1.593c-3.752,0-7.504,0-11.257,0
							s-7.504,0-11.257,0c-1.363,0-1.266,0.173-2.04-0.696c-0.977-1.097-1.523-2.627-2.553-3.756
							c-1.192-1.306-2.602-2.413-4.157-3.257c-6.306-3.423-14.335-2.033-19.165,3.257c-0.511,0.559-0.982,1.155-1.408,1.782
							c-0.376,0.552-0.964,2.355-1.465,2.67c-0.179,0.112-0.682,0.133-1.148,0.133c-2.025,0-4.228-0.133-6.251-0.133
							c-1.568,0-4.768,0.64-6.208,0c-0.92-0.409-0.643-0.226-0.643-1.694c0-3.91,0-7.82,0-11.73c10.08,0,20.161,0,30.241,0
							c2.416,0,4.832,0,7.248,0c0.771,0,2.748,0.355,3.356-0.316c1.641-1.811-1.741-1.684-2.534-1.684c-2.213,0-4.426,0-6.638,0
							c-6.495,0-12.99,0-19.485,0c-2.741,0-5.482,0-8.223,0c-0.62,0-3.382,0.426-3.874,0c-0.633-0.548-0.192-5.084-0.091-6.061
							c0.151-1.454,0.066-1.122,1.606-1.122c5.416,0,10.832,0,16.248,0c5.996,0,11.991,0,17.987,0c1.179,0,3.063,0.375,4.194,0
							c1.968-0.652,0.824-1.853-0.583-2c-4.687-0.49-9.69,0-14.397,0c-6.328,0-12.657,0-18.985,0c-1.428,0-4.101,0.537-5.44,0
							c-0.161-0.064-0.516,0.084-0.628-0.026c-0.388-0.379,0-3.027,0-3.566c0-0.575-0.379-3.146,0-3.539
							c0.124-0.129,0.434,0.026,0.628-0.052c1.331-0.534,4.027,0,5.44,0c6.328,0,12.657,0,18.985,0c4.68,0,9.658,0.49,14.317,0
							c1.398-0.147,2.725-1.317,0.664-2c-1.125-0.373-3.026,0-4.194,0c-5.996,0-11.991,0-17.987,0c-5.375,0-10.75,0-16.126,0
							c-1.385,0-1.394,0.318-1.728-0.702c-0.303-0.925,0-2.566,0-3.529c0-1.722,0-3.443,0-5.165
							C81.75,149.948,80.999,145.596,84.063,145.596z M110.533,190.148c-3.725,0-7.261,1.844-9.42,4.874
							c-0.511,0.717-0.941,1.481-1.278,2.295c-0.238,0.577-0.348,2.18-0.722,2.581c-0.521,0.56-1.359,0.385-2.355,0.385
							c0.514-7.12,6.636-12.822,13.775-12.822c7.139,0,13.258,5.702,13.771,12.822c-0.464,0-1.946,0.266-2.292,0
							c-0.309-0.238-0.581-2.477-0.783-2.966c-0.336-0.814-0.767-1.578-1.278-2.295
							C117.795,191.992,114.259,190.148,110.533,190.148z M84.399,200.282c-1.324,0-3.689-2.329-2.397-3.212
							c0.697-0.477,3.55,0,4.357,0c2.976,0,5.952,0,8.928,0c-0.364,1.314-0.057,2.764-1.12,3.213c-0.833,0.352-2.597,0-3.497,0
							C88.579,200.282,86.489,200.282,84.399,200.282z M110.533,211.309c-5.21,0-9.581-4.368-9.581-9.581
							c0-5.214,4.37-9.581,9.581-9.581c5.067,0,9.38,4.139,9.566,9.207C120.296,206.707,115.904,211.309,110.533,211.309z
							 M125.777,197.07c7.874,0,15.748,0,23.622,0c1.558,0,1.617-0.319,1.623,1.34c0.006,1.85,0.334,1.873-1.352,1.873
							c-4.49,0-8.98,0-13.47,0c-2.538,0-5.076,0-7.615,0c-0.462,0-1.522,0.214-1.938,0
							C125.898,199.898,126.049,198.05,125.777,197.07z M153.022,200.279c0-0.545-0.338-2.815,0-3.154
							c0.327-0.328,2.133-0.055,2.68-0.055c-0.202,0.705-0.251,2.872-0.708,3.209C154.666,200.521,153.444,200.279,153.022,200.279z
							 M170.448,211.309c-5.209,0-9.581-4.368-9.581-9.581c0-5.213,4.369-9.581,9.581-9.581c5.068,0,9.38,4.139,9.567,9.207
							C180.211,206.707,175.819,211.309,170.448,211.309z M181.928,200.279c-0.811-6.453-7.038-11.06-13.443-9.958
							c-2.997,0.516-5.691,2.223-7.455,4.698c-0.931,1.306-1.352,2.618-1.852,4.114c-0.485,1.452-0.436,1.145-2.04,1.145
							c0.511-6.866,6.43-12.347,13.311-12.347c6.881,0,12.799,5.481,13.311,12.347C183.149,200.279,182.538,200.279,181.928,200.279
							z M190.79,200.279c-1.105,0-2.211,0-3.316,0c-0.32,0-1.407,0.177-1.654,0c-0.356-0.255-0.451-2.603-0.624-3.209
							c3.074,0,6.149,0,9.223,0C194.188,198.885,192.62,200.279,190.79,200.279z"/>
						<path d="M110.533,196.229c-7.081,0-7.091,11,0,11C117.619,207.229,117.625,196.229,110.533,196.229z M110.533,205.229
							c-4.513,0-4.513-7,0-7S115.046,205.229,110.533,205.229z"/>
						<path d="M170.448,196.229c-7.081,0-7.091,11,0,11C177.533,207.229,177.54,196.229,170.448,196.229z M170.448,205.229
							c-4.513,0-4.513-7,0-7S174.961,205.229,170.448,205.229z"/>
					</g>
				</g>
				<g>
					<g>
						<g>
							<rect x="228.63" y="141.88" style="fill:#FFFFFF;" width="29.83" height="42.67"/>
							<path style="fill:#EAEAEA;" d="M258.46,141.88v8.06c-6.5,3.81-16.22,4.13-22.48,2.57c-2.74-0.68-5.17-1.55-7.35-2.84v-7.79
								H258.46z"/>
							<g>
								<path style="fill:#424242;" d="M327.973,206.388"/>
								<g>
									<path style="fill:#424242;" d="M333.62,178.48c-0.34,7.45-1.32,13.54-2.54,18.42c-2.82,11.35-6.9,16.11-6.9,16.11H223.59
										v-6.62c0-3.77-0.53-6.78-1.26-9.49c-1.36-5.08-3.43-9.14-4.08-15.31c-0.07-0.64-0.12-1.31-0.16-2c-0.06-1.08,0.81-2,1.89-2
										h20.67c8.12,0,7.4,6.96,13.08,6.96c4.04,0,12.09,0,12.09,0h27.46c7.25,0,5.94-11.61,11.33-11.61h23.69
										c2.49,0,4.58,1.71,5.16,4C333.59,177.43,333.64,177.95,333.62,178.48z"/>
								</g>
								<path style="opacity:0.2;fill:#FFFFFF;" d="M333.46,176.94h-28.53c-0.4,0.53-0.95,1.83-1.33,2.73
									c-1.42,3.32-3.78,8.88-10.32,8.88h-39.55c-4.41,0-6.71-2.64-8.23-4.39c-1.45-1.66-2.25-2.57-4.85-2.57h-22.4
									c-0.07-0.64-0.12-1.31-0.16-2c-0.06-1.08,0.81-2,1.89-2h20.67c8.12,0,7.4,6.96,13.08,6.96c4.04,0,12.09,0,12.09,0h27.46
									c7.25,0,5.94-11.61,11.33-11.61h23.69C330.79,172.94,332.88,174.65,333.46,176.94z"/>
							</g>
							<g>
								<path style="fill:#F46C7A;" d="M331.08,196.9c-0.79,3.2-1.69,5.86-2.56,8.05c-2.23,5.6-4.34,8.06-4.34,8.06H223.59v-6.62
									c0-0.49-0.01-0.97-0.02-1.44c-0.12-3.11-0.61-5.69-1.24-8.05H331.08z"/>
							</g>
							<g style="opacity:0.4;">
								<path style="fill:#FFFFFF;" d="M222.178,219.726c3.314,0,6.628,0,9.943,0c1.851,0,93.717,0.069,95.567,0
									c1.318-0.049,3.322-1.173,1.079-2c-0.793-0.292-92.314,0-93.132,0c-2.18,0-4.36,0-6.54,0c-1.941,0-3.898-0.072-5.838,0
									c-0.301,0.011-0.771-0.1-1.055,0C221.232,218.069,220.603,219.726,222.178,219.726z"/>
								<path style="fill:#FFFFFF;" d="M240.907,224.232c3.314,0,6.628,0,9.943,0c1.851,0,53.717,0.069,55.567,0
									c1.318-0.049,3.322-1.173,1.079-2c-0.793-0.292-52.314,0-53.132,0c-2.18,0-4.36,0-6.54,0c-1.941,0-3.898-0.072-5.838,0
									c-0.301,0.011-0.771-0.1-1.055,0C239.962,222.575,239.332,224.232,240.907,224.232z"/>
							</g>
							<g>
								<path style="fill:#CC5068;" d="M328.52,204.95c-2.23,5.6-4.34,8.06-4.34,8.06H223.59v-6.62c0-0.49-0.01-0.97-0.02-1.44
									H328.52z"/>
							</g>
							<g>
								<rect x="258.461" y="168.824" style="fill:#F46C7A;" width="26.021" height="15.724"/>
							</g>
							<rect x="258.46" y="168.824" style="opacity:0.25;fill:#FFFFFF;" width="26.02" height="3.33"/>
							<g>
								<rect x="258.46" y="153.39" style="fill:#F2C96D;" width="26.02" height="15.43"/>
							</g>
							<rect x="258.46" y="153.39" style="opacity:0.25;fill:#FFFFFF;" width="26.02" height="3.33"/>
							<g>
								<g>
									<path style="fill:#F2C96D;" d="M238.247,154.334L238.247,154.334c-1.675,0-3.032,1.358-3.032,3.032v3.032h6.065v-3.032
										C241.279,155.692,239.922,154.334,238.247,154.334z"/>
									<path style="fill:#F2C96D;" d="M248.833,162.538L248.833,162.538c-1.675,0-3.032,1.358-3.032,3.032v3.032h6.065v-3.032
										C251.866,163.895,250.508,162.538,248.833,162.538z"/>
								</g>
							</g>
							<g>
								<rect x="228.63" y="141.88" style="fill:#F46C7A;" width="29.83" height="6.19"/>
							</g>
						</g>
					</g>
					<g>
						<path d="M332.872,173.893c-2.312-2.416-5.674-1.954-8.695-1.954c-3.849,0-7.698,0-11.547,0c-2.604,0-5.273-0.176-7.872,0
							c-5.874,0.398-4.922,7.9-8.844,10.761c-1.321,0.964-2.873,0.847-4.418,0.847c-1.326,0-4.381,0.612-5.582,0
							c-1.11-0.566-0.432-5.732-0.432-7.14c0-5.433,0-10.867,0-16.3c0-1.836,0-3.672,0-5.508c0-0.367,0.203-1.99-0.039-2.208
							c-0.234-0.21-1.665,0-1.993,0c-1.682,0-3.365,0-5.047,0c-3.954,0-7.909,0-11.863,0c-1.573,0-3.147,0-4.72,0
							c-0.322,0-2.085,0.228-2.32,0c-0.254-0.246-0.039-1.959-0.039-2.348c0-2.115,0-4.229,0-6.344c0-2.358,0.617-2.821-1.686-2.821
							c-7.243,0-14.485,0-21.728,0c-1.606,0-3.212,0-4.818,0c-0.81,0-2.236-0.296-3.001,0c-1.01,0.39-0.598,1.121-0.598,2.495
							c0,7.307,0,14.614,0,21.921c0,3.171,0,6.342,0,9.513c0,2.444-0.416,1.787-3.009,1.787c-1.486,0-3.113-0.185-4.586,0
							c-3.734,0.469-2.974,4.204-2.535,6.976c0.979,6.18,3.941,11.826,4.779,18.036c0.263,1.95,0.306,3.908,0.31,5.871
							c0.003,1.491-0.581,4.423,0,5.806c0.421,1.002-0.085,0.624,1.263,0.724c4.097,0.305,8.336,0,12.441,0
							c15.223,0,30.447,0,45.67,0c12.943,0,25.887,0,38.83,0c1.984,0,3.525,0.547,4.724-1.1c4.118-5.655,6.132-13.047,7.437-19.794
							c0.611-3.159,1.04-6.352,1.327-9.557C334.571,180.31,335.36,176.495,332.872,173.893z M283.481,183.256
							c-5.277,0-10.553,0-15.83,0c-1.514,0-3.027,0-4.541,0c-0.767,0-2.376,0.325-3.074,0c-0.832-0.387-0.137,0.295-0.576-0.461
							c-0.456-0.785,0-3.146,0-4.054c0-1.643,0-3.286,0-4.928c0-0.615-0.403-3.288,0-3.798c0.456-0.577,3.233-0.192,4.07-0.192
							c6.168,0,12.689-0.63,18.823,0c0.559,0.057,0.881-0.12,1.128,0.192c0.431,0.545,0,3.413,0,4.06
							C283.481,177.136,283.481,180.196,283.481,183.256z M283.481,154.391c0,2.61,0,5.221,0,7.831c0,1.07,0.531,5.012-0.205,5.602
							c-0.328,0.263-1.872,0-2.293,0c-1.465,0-2.931,0-4.396,0c-3.578,0-7.156,0-10.734,0c-1.062,0-5.463,0.702-6.285,0
							c-0.701-0.599-0.108-5.181-0.108-6.157c0-0.993-0.721-6.657,0.017-7.276c0.734-0.616,4.726,0,5.645,0
							C271.243,154.391,277.362,154.391,283.481,154.391z M257.461,142.878c0,1.171,0.44,3.679-0.355,4.192
							c-0.93,0.6-4.359,0-5.425,0c-5.866,0-11.733,0-17.599,0c-0.647,0-3.928,0.467-4.395,0c-0.322-0.322-0.209-3.975,0.072-4.192
							c0.656-0.507,3.738,0,4.538,0c2.897,0,5.795,0,8.692,0C247.813,142.878,252.637,142.878,257.461,142.878z M229.629,149.07
							c8.252,0,16.503,0,24.755,0c0.433,0,2.736-0.323,3.07,0c0.476,0.46,0.007,3.048,0.007,3.925c0,4.562,0,9.124,0,13.686
							c0,3.057,0,6.115,0,9.172c0,2.044,0.527,4.895,0,6.87c-0.238,0.891,0.228,0.454-0.388,0.825c-0.594,0.358-2.565,0.06-3.287,0
							c-3.573-0.299-4.823-3.79-7.63-5.524c-2.158-1.333-4.576-1.429-7.03-1.429c-2.522,0-5.043,0-7.565,0
							c-1.538,0-1.545,0.345-1.932-0.692c-0.557-1.493,0-4.295,0-5.874c0-2.956,0-5.911,0-8.867
							C229.629,157.131,229.629,153.101,229.629,149.07z M323.691,212.009c-12.911,0-25.822,0-38.732,0c-18.202,0-36.403,0-54.605,0
							c-1.026,0-4.692,0.625-5.564,0c-0.532-0.381-0.202-2.298-0.202-3.072c0-3.724-0.12-7.39-0.977-11.039
							c11.923,0,23.846,0,35.769,0c19.107,0,38.213,0,57.32,0c4.359,0,8.719,0,13.078,0
							C328.466,202.761,326.7,207.896,323.691,212.009z M330.283,195.897c-13.26,0-26.52,0-39.78,0c-19.615,0-39.23,0-58.844,0
							c-2.364,0-4.728,0-7.092,0c-0.272,0-1.147,0.155-1.383,0c-0.353-0.232-0.457-1.217-0.607-1.695
							c-0.632-2.015-1.365-3.997-1.961-6.023c-0.598-2.03-2.933-8.83-0.397-9.586c1.408-0.419,3.584,0,5.041,0
							c4.747,0,9.495-0.024,14.242,0c2.165,0.011,4.274,0.128,6.103,1.458c2.938,2.136,4.043,5.277,8.13,5.495
							c2.48,0.133,5.003,0,7.485,0c9.778,0,19.557,0,29.335,0c4.132,0,7.126-0.645,9.251-4.77c1.191-2.313,1.863-6.403,4.87-6.837
							c1.295-0.187,2.755,0,4.06,0c5.074,0,10.148,0,15.222,0c1.398,0,2.844-0.108,4.239,0c4.957,0.384,4.466,4.993,4.15,8.754
							C331.972,187.135,331.32,191.561,330.283,195.897z"/>
						<path d="M261.732,201.731c-7.729,0-15.459,0-23.188,0c-0.806,0-3.305-0.124-2.348,1.505c0.471,0.803,2.204,0.495,2.954,0.495
							c4.685,0,9.37,0,14.055,0c2.299,0,4.597,0,6.896,0c0.421,0,1.116,0.126,1.526,0
							C262.642,203.421,263.324,201.731,261.732,201.731z"/>
						<path d="M261.732,206.033c-7.729,0-15.459,0-23.188,0c-0.806,0-3.305-0.124-2.348,1.505c0.471,0.803,2.204,0.495,2.954,0.495
							c4.685,0,9.37,0,14.055,0c2.299,0,4.597,0,6.896,0c0.421,0,1.116,0.126,1.526,0
							C262.642,207.723,263.324,206.033,261.732,206.033z"/>
						<path d="M263.177,177.54c3.314,0,6.628,0,9.943,0c1.851,0,3.717,0.069,5.567,0c1.318-0.049,3.322-1.173,1.079-2
							c-0.793-0.292-2.314,0-3.132,0c-2.18,0-4.36,0-6.54,0c-1.941,0-3.898-0.072-5.838,0c-0.301,0.011-0.771-0.1-1.055,0
							C262.231,175.883,261.602,177.54,263.177,177.54z"/>
						<path d="M263.177,162.107c3.314,0,6.628,0,9.943,0c1.851,0,3.717,0.069,5.567,0c1.318-0.049,3.322-1.173,1.079-2
							c-0.793-0.292-2.314,0-3.132,0c-2.18,0-4.36,0-6.54,0c-1.941,0-3.898-0.072-5.838,0c-0.301,0.011-0.771-0.1-1.055,0
							C262.231,160.45,261.602,162.107,263.177,162.107z"/>
						<path d="M242.279,157.367c0-4.377-6.285-5.503-7.812-1.405c-0.389,1.045-0.682,4.882-0.065,5.438
							c0.673,0.607,5.807,0.137,6.817,0c1.258-0.171,0.702,0.281,1.06-0.736C242.585,159.794,242.279,158.307,242.279,157.367z
							 M240.279,159.399c-0.947,0-2.449,0.31-3.323,0c-0.95-0.337-0.959-0.545-0.742-1.957c0.253-1.649,2.014-2.933,3.452-1.495
							C240.534,156.815,240.279,158.273,240.279,159.399z"/>
						<path d="M252.866,165.57c0-4.377-6.285-5.503-7.812-1.405c-0.389,1.045-0.682,4.882-0.065,5.438
							c0.673,0.607,5.807,0.137,6.817,0c1.258-0.171,0.702,0.281,1.06-0.736C253.172,167.997,252.866,166.51,252.866,165.57z
							 M250.866,167.603c-0.947,0-2.449,0.31-3.323,0c-0.95-0.337-0.959-0.546-0.742-1.957c0.253-1.65,2.013-2.933,3.452-1.495
							C251.121,165.018,250.866,166.477,250.866,167.603z"/>
					</g>
				</g>
			</g>
		</g>
	</g>
</g>
</svg>
